<svg width="187" height="118" viewBox="0 0 187 118" fill="none" xmlns="http://www.w3.org/2000/svg">
<path d="M57.7854 81.1875C56.1121 87.1659 52.8531 92.9461 46.4998 95.0091C41.7814 96.5411 41.6756 89.33 40.5172 86.5536C36.1107 75.9926 13.99 99.2314 10.9757 103.034C10.4216 103.733 5.75093 110.58 6.09905 110.578C6.93568 110.574 11.3307 108.909 10.2119 109.555C8.55917 110.509 6.60544 110.736 4.92422 111.707C4.08869 112.189 4.6053 104.504 4.42782 103.437" stroke="white" stroke-width="2.19389" stroke-linecap="round"/>
<path d="M22.4851 30.3011C22.1298 30.2701 21.8514 29.9275 21.65 29.2735C21.4486 28.6194 21.267 27.7383 21.1052 26.6303L20.7289 24.4493C18.9026 13.7086 17.7883 6.99794 17.386 4.31749C16.6126 6.79578 15.9698 8.91753 15.4576 10.6827C12.9696 18.8985 11.116 24.8626 9.89664 28.5748C9.76346 28.961 9.48961 29.1359 9.07509 29.0997C8.66058 29.0635 8.46884 28.8678 8.49988 28.5125C8.5154 28.3348 8.97685 26.9232 9.88422 24.2776C10.2589 23.1766 11.5935 18.828 13.888 11.2318C15.9111 4.46709 16.9681 1.0191 17.0591 0.887824C17.1356 0.695609 17.2923 0.609848 17.5291 0.630542C17.7463 0.649511 17.908 0.733255 18.0144 0.881773C18.1207 1.03029 18.1987 1.27578 18.2484 1.61824C18.4314 3.16572 19.0572 7.15852 20.1257 13.5966C21.2156 20.0167 22.0483 24.7138 22.6239 27.6878C23.272 25.2781 24.6166 20.473 26.6579 13.2723L29.7005 2.35023C29.7967 2.15974 29.9495 2.00403 30.1589 1.88311C30.3881 1.7639 30.6014 1.71292 30.7988 1.73017C30.937 1.74224 31.0125 1.78862 31.0254 1.8693C31.0597 1.93196 31.0708 2.03238 31.0587 2.17055C31.0466 2.30872 31.038 2.40742 31.0328 2.46664C29.8468 6.48015 28.5727 10.9335 27.2104 15.8266C25.8481 20.7198 24.7174 24.8972 23.8183 28.359C23.765 28.5135 23.6808 28.7945 23.5656 29.2021C23.4504 29.6098 23.3061 29.8955 23.1327 30.0594C22.9773 30.2447 22.7614 30.3253 22.4851 30.3011ZM38.3907 31.4222C37.9367 31.3825 37.533 31.1086 37.1796 30.6004C36.8477 30.0741 36.7058 29.5347 36.7541 28.982C36.861 27.7582 37.3678 25.714 38.2744 22.8496C37.6878 23.8724 36.9506 24.9118 36.0627 25.968C35.1964 27.0061 34.351 27.9168 33.5268 28.7C32.7026 29.4833 32.1016 29.9877 31.7239 30.2132C31.1977 30.5452 30.6385 30.6853 30.0463 30.6335C28.9212 30.5352 28.4207 29.7755 28.5449 28.3543C28.6656 26.9726 29.3387 25.301 30.5642 23.3395C31.7914 21.3583 33.1919 19.6707 34.7656 18.2767C36.3376 16.9025 37.5677 16.2541 38.456 16.3317C39.364 16.4111 39.8427 16.8507 39.8921 17.6506C39.9307 17.8926 39.9379 18.1518 39.9137 18.4282C40.0176 18.3776 40.1287 18.3574 40.2472 18.3678C40.7012 18.4075 40.9092 18.6444 40.8713 19.0787L40.8609 19.1971L40.3918 20.4688C40.0292 21.4316 39.6154 22.8673 39.1503 24.7758C38.6852 26.6844 38.3966 28.2802 38.2846 29.5632L38.5651 29.7667C39.013 30.1042 39.224 30.421 39.1981 30.717C39.1809 30.9144 39.0963 31.086 38.9443 31.2319C38.7923 31.3777 38.6078 31.4412 38.3907 31.4222ZM30.4177 29.1146C30.6348 29.1336 30.8185 29.08 30.9687 28.9539C33.1321 27.4125 35.1263 25.19 36.9512 22.2865C37.7327 21.0818 38.2197 20.289 38.4121 19.908C38.6242 19.5288 38.7466 19.1516 38.7794 18.7766C38.7967 18.5792 38.7628 18.3972 38.6779 18.2307C38.593 18.0642 38.4716 17.974 38.3137 17.9602C38.1163 17.943 37.852 18.0094 37.5206 18.1594C36.6948 18.505 35.6805 19.3014 34.4776 20.5488C33.2944 21.7979 32.2919 23.1424 31.47 24.5822C30.6069 26.0383 30.1236 27.3585 30.0201 28.5428C29.9891 28.8981 30.1216 29.0887 30.4177 29.1146ZM50.3782 32.5888C50.0623 32.5612 49.8405 32.4822 49.7127 32.3517C49.5849 32.2212 49.5536 32.0096 49.619 31.717L51.8251 23.1981C52.0959 22.1477 52.2562 21.3363 52.3063 20.7639C52.389 19.8164 52.1639 19.3194 51.631 19.2728C50.9796 19.2159 49.9823 20.2724 48.6392 22.4424C47.3175 24.5943 45.9304 27.0389 44.478 29.7761L43.9807 30.6874C43.5582 31.4261 43.1692 31.78 42.8139 31.749C42.6166 31.7317 42.4917 31.681 42.4394 31.5969C42.4085 31.4948 42.406 31.2956 42.4319 30.9996C42.4578 30.7035 43.0419 28.4573 44.1842 24.2609C45.3462 20.0663 45.9959 17.8656 46.1333 17.6588C46.2724 17.4323 46.3841 17.2929 46.4682 17.2406C46.5721 17.19 46.7523 17.1759 47.0089 17.1983C47.2458 17.219 47.4255 17.3242 47.5482 17.5139C47.6906 17.7054 47.754 17.8899 47.7385 18.0676C47.7281 18.186 47.5958 18.5623 47.3415 19.1964C46.5735 21.1581 45.9389 23.0717 45.4378 24.9373L44.9891 26.6583C45.3867 25.977 45.6817 25.4459 45.8741 25.0649C46.5389 23.8302 47.1406 22.749 47.679 21.8215C48.2373 20.8957 48.8388 20.0433 49.4837 19.2642C50.4608 18.0966 51.3244 17.5455 52.0745 17.611C53.397 17.7266 53.9652 18.8502 53.7789 20.982C53.7392 21.436 53.6292 22.0131 53.4486 22.7134C53.2681 23.4136 53.076 24.1328 52.8723 24.8708C52.4701 26.2876 52.2062 27.259 52.0807 27.7851L51.7545 29.1289C51.4699 30.3372 51.2335 31.2215 51.0453 31.7819C50.8572 32.3423 50.6348 32.6112 50.3782 32.5888ZM64.9051 33.7386C64.4511 33.6989 64.0474 33.425 63.694 32.9168C63.3621 32.3905 63.2203 31.8511 63.2686 31.2984C63.3755 30.0746 63.8823 28.0304 64.7889 25.166C64.2023 26.1888 63.4651 27.2283 62.5772 28.2844C61.7108 29.3225 60.8655 30.2332 60.0413 31.0164C59.2171 31.7997 58.6161 32.3041 58.2384 32.5296C57.7121 32.8616 57.1529 33.0017 56.5608 32.9499C55.4356 32.8516 54.9352 32.0919 55.0593 30.6707C55.18 29.289 55.8531 27.6174 57.0787 25.6559C58.3059 23.6748 59.7064 21.9872 61.2801 20.5932C62.8521 19.2189 64.0822 18.5706 64.9704 18.6482C65.8784 18.7275 66.3572 19.1671 66.4066 19.967C66.4451 20.209 66.4523 20.4682 66.4282 20.7446C66.5321 20.694 66.6432 20.6739 66.7616 20.6842C67.2156 20.7239 67.4237 20.9608 67.3857 21.3951L67.3754 21.5135L66.9063 22.7852C66.5437 23.748 66.1299 25.1837 65.6648 27.0923C65.1997 29.0008 64.9111 30.5966 64.799 31.8796L65.0796 32.0831C65.5275 32.4206 65.7385 32.7374 65.7126 33.0335C65.6953 33.2308 65.6107 33.4025 65.4588 33.5483C65.3068 33.6941 65.1223 33.7576 64.9051 33.7386ZM56.9321 31.431C57.1493 31.45 57.3329 31.3964 57.4832 31.2703C59.6466 29.7289 61.6407 27.5064 63.4657 24.6029C64.2472 23.3982 64.7341 22.6054 64.9265 22.2244C65.1387 21.8452 65.2611 21.468 65.2939 21.093C65.3111 20.8956 65.2773 20.7136 65.1924 20.5471C65.1075 20.3806 64.9861 20.2904 64.8282 20.2766C64.6308 20.2594 64.3664 20.3258 64.0351 20.4758C63.2093 20.8214 62.195 21.6178 60.9921 22.8652C59.8089 24.1144 58.8064 25.4588 57.9845 26.8986C57.1213 28.3547 56.638 29.6749 56.5346 30.8592C56.5035 31.2145 56.636 31.4051 56.9321 31.431ZM73.9485 34.7972C73.2971 34.7403 72.6749 34.5765 72.082 34.3059C71.586 34.0637 71.1746 33.8786 70.8476 33.7506C70.5224 33.6028 70.2315 33.5177 69.9749 33.4953C69.6788 33.4695 69.3024 33.5659 68.8458 33.7845C68.3676 34.0212 68.0496 34.1327 67.8917 34.1189C67.5364 34.0878 67.3725 33.9144 67.4001 33.5986C67.4157 33.4209 67.4913 33.2386 67.6269 33.0515L70.5325 29.8446C71.9192 28.3149 73.3497 26.7393 74.8239 25.1178C76.3196 23.4784 77.4955 22.1988 78.3516 21.2791L74.8115 20.8206L72.3115 20.7514C71.4232 20.6738 71.0007 20.3882 71.0438 19.8948C71.0852 19.421 71.4414 19.2135 72.1125 19.2721L73.3483 19.4696L79.7115 20.0553C80.2247 20.1002 80.4826 20.2221 80.4851 20.4213L80.4618 20.6877C80.4514 20.8062 80.3454 20.9958 80.1436 21.2566C79.9435 21.4977 79.7121 21.7559 79.4494 22.0313L78.7604 22.7468L74.7265 27.2574C73.3647 28.7296 71.8441 30.4266 70.1646 32.3484C70.6383 32.3898 71.0297 32.4637 71.3386 32.5703C71.6492 32.6571 71.9951 32.7967 72.376 32.9891C72.8686 33.2708 73.3418 33.4315 73.7958 33.4711C75.7105 33.6384 76.7152 33.1792 76.8101 32.0936C76.8256 31.9159 76.7557 31.691 76.6005 31.4189C76.5842 31.3777 76.5426 31.2846 76.4757 31.1395C76.4106 30.9747 76.3849 30.8133 76.3987 30.6554C76.4142 30.4778 76.5087 30.307 76.6821 30.1432C76.8573 29.9596 77.0534 29.8773 77.2706 29.8962C77.6061 29.9256 77.8626 30.1767 78.0401 30.6497C78.2176 31.1226 78.2873 31.5762 78.2494 32.0105C78.1632 32.9974 77.7406 33.7362 76.9817 34.2268C76.2426 34.7191 75.2315 34.9093 73.9485 34.7972ZM90.0317 35.9338C89.5777 35.8941 89.174 35.6202 88.8206 35.1119C88.4887 34.5857 88.3469 34.0462 88.3952 33.4936C88.5021 32.2697 89.0088 30.2256 89.9154 27.3612C89.3288 28.384 88.5916 29.4234 87.7038 30.4796C86.8374 31.5177 85.9921 32.4284 85.1679 33.2116C84.3436 33.9948 83.7427 34.4992 83.3649 34.7248C82.8387 35.0567 82.2795 35.1968 81.6873 35.1451C80.5622 35.0468 80.0617 34.2871 80.1859 32.8659C80.3066 31.4841 80.9797 29.8126 82.2052 27.8511C83.4325 25.8699 84.8329 24.1823 86.4067 22.7883C87.9787 21.4141 89.2088 20.7657 90.097 20.8433C91.005 20.9226 91.4837 21.3623 91.5332 22.1622C91.5717 22.4042 91.5789 22.6634 91.5548 22.9397C91.6586 22.8891 91.7698 22.869 91.8882 22.8794C92.3422 22.919 92.5502 23.156 92.5123 23.5902L92.5019 23.7087L92.0328 24.9804C91.6703 25.9432 91.2564 27.3789 90.7914 29.2874C90.3263 31.196 90.0377 32.7917 89.9256 34.0748L90.2062 34.2783C90.654 34.6158 90.865 34.9325 90.8392 35.2286C90.8219 35.426 90.7373 35.5976 90.5853 35.7435C90.4334 35.8893 90.2488 35.9527 90.0317 35.9338ZM82.0587 33.6262C82.2758 33.6451 82.4595 33.5916 82.6098 33.4655C84.7732 31.9241 86.7673 29.7016 88.5923 26.7981C89.3737 25.5934 89.8607 24.8006 90.0531 24.4196C90.2652 24.0403 90.3877 23.6632 90.4204 23.2882C90.4377 23.0908 90.4039 22.9088 90.319 22.7423C90.2341 22.5757 90.1127 22.4856 89.9548 22.4718C89.7574 22.4545 89.493 22.5209 89.1617 22.671C88.3359 23.0165 87.3216 23.813 86.1187 25.0604C84.9355 26.3095 83.9329 27.654 83.111 29.0938C82.2479 30.5499 81.7646 31.8701 81.6611 33.0544C81.6301 33.4097 81.7626 33.6003 82.0587 33.6262ZM90.9962 48.1904C90.7001 48.1645 90.5496 47.9525 90.5446 47.5543C91.3333 45.3558 92.0431 43.1504 92.674 40.9381L93.9683 36.3672L95.2627 31.7963L95.6082 30.5734C96.7564 26.5367 97.5291 23.8396 97.9261 22.482L97.9831 21.8306C98.0003 21.6332 98.1055 21.4535 98.2987 21.2913C98.4918 21.1292 98.7069 21.0585 98.9437 21.0792C99.1609 21.0982 99.3209 21.2016 99.4238 21.3896C99.5284 21.5579 99.5721 21.7407 99.5549 21.9381C99.5307 22.2145 99.4564 22.4964 99.3318 22.7838L99.1798 23.1584C99.1265 23.3128 99.0973 23.4197 99.0921 23.4789L98.4913 25.5745C100.149 22.9944 101.787 21.7751 103.405 21.9165C104.254 21.9906 104.844 22.3007 105.174 22.8467C105.526 23.3746 105.657 24.142 105.569 25.1487C105.404 27.0436 104.973 28.9054 104.276 30.734C103.579 32.5626 102.671 34.0745 101.553 35.2696C100.411 36.5024 99.1291 37.0567 97.7079 36.9326C97.1552 36.8843 96.7214 36.727 96.4066 36.4609C96.1097 36.2161 95.8867 35.8088 95.7376 35.2389L95.2297 36.9547C94.5663 39.0846 94.0777 40.6928 93.764 41.7792C93.0799 44.1459 92.4509 46.1098 91.8769 47.6707C91.6648 48.0499 91.3712 48.2232 90.9962 48.1904ZM98.0367 35.5591C99.0631 35.6488 100.077 35.081 101.079 33.8558C102.331 32.2746 103.254 30.1375 103.847 27.4446C104.02 26.6045 104.133 25.8784 104.187 25.2665C104.299 23.9835 104.039 23.3144 103.407 23.2592C102.776 23.204 102.016 23.5951 101.127 24.4324C99.913 25.5793 98.874 27.0002 98.0099 28.6949C97.1475 30.3698 96.6603 31.8488 96.5482 33.1318C96.4154 34.6517 96.9116 35.4608 98.0367 35.5591ZM105.464 49.4842C104.754 49.4222 103.966 49.2141 103.102 48.8602C102.218 48.5045 101.479 48.0918 100.883 47.6221C100.286 47.1722 100.003 46.7696 100.034 46.4143C100.051 46.2169 100.154 46.0667 100.342 45.9638C100.53 45.8609 100.791 45.834 101.125 45.883C102.123 46.746 102.9 47.3011 103.455 47.5485C104.009 47.8157 104.759 47.9906 105.707 48.0734C107.444 48.2251 108.902 47.8155 110.08 46.8444C111.257 45.8931 112.241 44.5371 113.031 42.7763C113.549 41.6282 114.14 39.7604 114.804 37.1731C115.469 34.566 116.245 31.372 117.133 27.5909L117.833 24.6985L115.074 24.5171C114.683 24.4432 114.501 24.2483 114.529 23.9325C114.553 23.6561 114.658 23.4764 114.844 23.3932C115.052 23.292 115.374 23.2505 115.81 23.2687C116.267 23.2689 117.078 23.3198 118.243 23.4216C119.07 21.0077 119.823 19.1044 120.502 17.7118C121.2 16.3208 122.049 15.2613 123.047 14.533C124.047 13.785 125.287 13.4757 126.768 13.605C128.406 13.7482 129.199 14.1158 129.148 14.708C129.122 15.0041 128.899 15.273 128.481 15.5149C127.956 15.3696 127.171 15.2513 126.125 15.1599C124.743 15.0392 123.476 15.7639 122.325 17.334C121.195 18.8861 120.318 20.9576 119.694 23.5483L123.451 23.9065C124.004 23.9547 124.264 24.1664 124.231 24.5414C124.19 25.0152 123.694 25.2304 122.743 25.1871L121.825 25.1069L119.279 24.8845C118.898 26.2832 118.098 29.5151 116.88 34.5799L115.583 39.8666C114.523 44.0303 112.893 46.8615 110.694 48.3599C109.359 49.2974 107.616 49.6722 105.464 49.4842ZM132.044 39.6042C131.59 39.5645 131.187 39.2906 130.833 38.7823C130.501 38.2561 130.359 37.7166 130.408 37.1639C130.515 35.9401 131.021 33.896 131.928 31.0316C131.341 32.0544 130.604 33.0938 129.716 34.1499C128.85 35.1881 128.005 36.0988 127.18 36.882C126.356 37.6652 125.755 38.1696 125.378 38.3952C124.851 38.7271 124.292 38.8672 123.7 38.8155C122.575 38.7172 122.074 37.9575 122.198 36.5363C122.319 35.1545 122.992 33.4829 124.218 31.5215C125.445 29.5403 126.845 27.8527 128.419 26.4587C129.991 25.0844 131.221 24.4361 132.11 24.5137C133.018 24.593 133.496 25.0327 133.546 25.8326C133.584 26.0746 133.591 26.3338 133.567 26.6101C133.671 26.5595 133.782 26.5394 133.901 26.5498C134.355 26.5894 134.563 26.8264 134.525 27.2606L134.515 27.3791L134.045 28.6508C133.683 29.6136 133.269 31.0493 132.804 32.9578C132.339 34.8664 132.05 36.4621 131.938 37.7452L132.219 37.9487C132.667 38.2862 132.878 38.6029 132.852 38.899C132.834 39.0964 132.75 39.268 132.598 39.4139C132.446 39.5597 132.261 39.6231 132.044 39.6042ZM124.071 37.2966C124.288 37.3155 124.472 37.262 124.622 37.1359C126.786 35.5945 128.78 33.372 130.605 30.4684C131.386 29.2638 131.873 28.471 132.066 28.09C132.278 27.7107 132.4 27.3336 132.433 26.9586C132.45 26.7612 132.416 26.5792 132.332 26.4127C132.247 26.2461 132.125 26.156 131.967 26.1422C131.77 26.1249 131.506 26.1913 131.174 26.3414C130.348 26.6869 129.334 27.4834 128.131 28.7308C126.948 29.9799 125.946 31.3244 125.124 32.7642C124.26 34.2203 123.777 35.5405 123.674 36.7248C123.643 37.0801 123.775 37.2707 124.071 37.2966ZM141.088 40.6627C140.436 40.6058 139.814 40.4421 139.221 40.1715C138.725 39.9293 138.314 39.7442 137.987 39.6161C137.662 39.4684 137.371 39.3833 137.114 39.3609C136.818 39.335 136.442 39.4314 135.985 39.6501C135.507 39.8868 135.189 39.9982 135.031 39.9844C134.676 39.9534 134.512 39.7799 134.539 39.4641C134.555 39.2865 134.63 39.1041 134.766 38.9171L137.672 35.7102C139.058 34.1805 140.489 32.6049 141.963 30.9834C143.459 29.3439 144.635 28.0643 145.491 27.1446L141.951 26.6862L139.451 26.6169C138.562 26.5393 138.14 26.2538 138.183 25.7603C138.224 25.2866 138.581 25.079 139.252 25.1377L140.487 25.3351L146.851 25.9209C147.364 25.9657 147.622 26.0877 147.624 26.2868L147.601 26.5533C147.591 26.6717 147.485 26.8614 147.283 27.1222C147.083 27.3633 146.851 27.6215 146.589 27.8969L145.899 28.6124L141.866 33.123C140.504 34.5952 138.983 36.2921 137.304 38.2139C137.777 38.2553 138.169 38.3293 138.478 38.4358C138.788 38.5226 139.134 38.6622 139.515 38.8546C140.008 39.1363 140.481 39.297 140.935 39.3367C142.85 39.504 143.854 39.0448 143.949 37.9591C143.965 37.7815 143.895 37.5566 143.74 37.2845C143.723 37.2433 143.682 37.1501 143.615 37.0051C143.55 36.8403 143.524 36.6789 143.538 36.521C143.553 36.3433 143.648 36.1726 143.821 36.0087C143.996 35.8251 144.193 35.7428 144.41 35.7618C144.745 35.7911 145.002 36.0423 145.179 36.5152C145.357 36.9882 145.426 37.4418 145.389 37.876C145.302 38.863 144.88 39.6018 144.121 40.0924C143.382 40.5847 142.371 40.7748 141.088 40.6627ZM155.436 39.3804C155.458 39.1237 155.543 38.9521 155.69 38.8655C155.837 38.7789 156.02 38.7253 156.241 38.7048C156.418 38.7203 156.551 38.7916 156.64 38.9187C156.748 39.0475 156.87 39.247 157.005 39.5174C157.139 39.8076 157.25 40.0162 157.338 40.1432C157.448 40.2523 157.641 40.3189 157.918 40.343C158.549 40.3982 159.08 40.2456 159.509 39.8854C159.958 39.5268 160.206 39.081 160.252 38.5481C160.302 37.9757 160.236 37.3633 160.055 36.7109C159.873 36.0586 159.577 35.2371 159.166 34.2466C158.334 32.3838 157.964 30.9294 158.056 29.8832C158.147 28.8371 158.477 28.0206 159.045 27.4338C159.634 26.8487 160.382 26.5958 161.29 26.6752C161.921 26.7303 162.508 26.9606 163.049 27.3659C163.591 27.7712 163.838 28.2403 163.791 28.7733C163.741 29.3457 163.479 29.6112 163.006 29.5698C162.868 29.5578 162.753 29.5079 162.661 29.4204C162.589 29.3345 162.518 29.2388 162.447 29.1332C162.379 29.0079 162.326 28.9237 162.29 28.8808C161.971 28.4353 161.595 28.1935 161.16 28.1556C160.193 28.0711 159.66 28.5914 159.562 29.7165C159.509 30.3284 159.573 30.9605 159.754 31.6129C159.936 32.2652 160.221 33.0957 160.611 34.1043C160.982 35.0914 161.258 35.9111 161.44 36.5635C161.622 37.2158 161.688 37.8282 161.638 38.4006C161.55 39.4073 161.17 40.2293 160.497 40.8667C159.825 41.5041 158.93 41.8436 157.813 41.8852C157.122 41.8249 156.54 41.5354 156.069 41.0168C155.599 40.4785 155.388 39.933 155.436 39.3804ZM167.405 42.9321C166.774 42.8769 166.289 42.7351 165.951 42.5067C165.614 42.2585 165.357 41.9078 165.177 41.4546C164.83 40.6486 164.704 39.7028 164.799 38.6171C164.964 36.7222 165.407 34.9509 166.128 33.3034C166.851 31.6361 167.756 30.2633 168.845 29.185C169.889 28.1624 170.974 27.7002 172.099 27.7985C172.691 27.8502 173.133 28.1375 173.426 28.6603C173.74 29.165 173.866 29.7629 173.806 30.4537C173.701 31.6578 173.294 32.6764 172.584 33.5094C171.895 34.3442 171.001 35.012 169.903 35.5128C168.949 35.9664 167.797 36.4028 166.447 36.8219L166.202 38.9485C166.057 40.6066 166.488 41.4796 167.495 41.5676C167.909 41.6038 168.311 41.5593 168.7 41.4342C169.108 41.3107 169.552 41.1307 170.03 40.894C170.59 40.6247 170.979 40.4996 171.196 40.5186C171.532 40.5479 171.684 40.7402 171.653 41.0955C171.631 41.3521 171.357 41.6365 170.833 41.9487C170.328 42.2626 169.739 42.5194 169.065 42.7191C168.393 42.899 167.84 42.9701 167.405 42.9321ZM166.808 35.4214C168.177 35.004 169.226 34.6182 169.953 34.264C170.68 33.9099 171.248 33.4325 171.659 32.8319C172.089 32.233 172.349 31.4204 172.439 30.394C172.506 29.6241 172.214 29.2108 171.563 29.1539C170.99 29.1039 170.273 29.5683 169.412 30.5472C168.511 31.5227 167.74 32.8376 167.098 34.492C166.919 34.9537 166.822 35.2635 166.808 35.4214ZM174.65 43.7441C174.374 43.7199 174.251 43.5302 174.282 43.1749L175.271 39.711L177.06 33.5723C177.855 30.8572 178.252 29.4996 178.252 29.4996C178.369 29.0722 178.505 28.7659 178.66 28.5806C178.815 28.3952 179.002 28.3121 179.219 28.331C179.416 28.3483 179.56 28.4106 179.65 28.5179C179.76 28.6269 179.804 28.8097 179.781 29.0664C179.742 29.5203 179.543 30.1991 179.186 31.1027C179.008 31.5446 178.875 31.9209 178.789 32.2316C178.686 32.501 178.569 32.8091 178.439 33.1558C178.311 33.4827 178.168 33.868 178.01 34.3116C178.648 33.1541 179.235 32.2408 179.771 31.5716C180.309 30.8826 180.961 30.2435 181.729 29.6542C182.45 29.1404 183.146 28.9128 183.817 28.9714C184.311 29.0145 184.716 29.1593 185.032 29.4058C185.351 29.6325 185.498 29.884 185.473 30.1603C185.454 30.3775 185.36 30.5482 185.19 30.6726C185.022 30.7772 184.819 30.8192 184.582 30.7985C184.405 30.783 184.24 30.7289 184.089 30.6361C183.98 30.5271 183.826 30.4639 183.629 30.4467C183.372 30.4243 182.981 30.5691 182.457 30.8813C181.471 31.4714 180.603 32.2907 179.855 33.3391C179.129 34.3696 178.529 35.431 178.056 36.5233C177.604 37.5977 177.102 38.9063 176.549 40.4492L176.187 41.5214C175.755 43.0549 175.242 43.7958 174.65 43.7441ZM6.69035 61.5186C6.71277 61.262 6.79738 61.0904 6.94417 61.0038C7.09097 60.9172 7.27465 60.8636 7.49523 60.8431C7.67288 60.8586 7.80588 60.9299 7.89423 61.0569C8.00231 61.1857 8.1241 61.3853 8.2596 61.6557C8.39336 61.9459 8.50442 62.1545 8.59277 62.2815C8.70258 62.3906 8.89566 62.4571 9.172 62.4813C9.80365 62.5365 10.3341 62.3839 10.7634 62.0236C11.2124 61.6651 11.4602 61.2193 11.5067 60.6864C11.5567 60.1139 11.4909 59.5016 11.3092 58.8492C11.1275 58.1969 10.8313 57.3754 10.4206 56.3848C9.58889 54.5221 9.21872 53.0677 9.31012 52.0215C9.40152 50.9754 9.73141 50.1589 10.2998 49.5721C10.8879 48.987 11.636 48.7341 12.544 48.8134C13.1756 48.8686 13.7621 49.0989 14.3035 49.5042C14.8449 49.9095 15.0923 50.3786 15.0458 50.9116C14.9958 51.484 14.7339 51.7495 14.2602 51.7081C14.122 51.696 14.007 51.6462 13.9152 51.5586C13.8431 51.4728 13.772 51.3771 13.7016 51.2715C13.633 51.1461 13.5807 51.062 13.5447 51.0191C13.2256 50.5735 12.8489 50.3318 12.4147 50.2938C11.4474 50.2093 10.9147 50.7297 10.8164 51.8548C10.7629 52.4667 10.8271 53.0988 11.0087 53.7511C11.1904 54.4035 11.4759 55.2339 11.8651 56.2425C12.2363 57.2297 12.5128 58.0494 12.6945 58.7017C12.8762 59.3541 12.942 59.9664 12.892 60.5389C12.804 61.5456 12.4239 62.3676 11.7517 63.005C11.0794 63.6424 10.1845 63.9819 9.0671 64.0235C8.37624 63.9632 7.7949 63.6737 7.32308 63.1551C6.85298 62.6168 6.64207 62.0713 6.69035 61.5186ZM16.6463 64.8945C15.9752 64.8359 15.687 64.2637 15.7819 63.1781C15.806 62.9017 15.8769 62.6593 15.9946 62.4508C16.1226 62.1239 16.2451 61.7467 16.362 61.3194L16.9794 59.3744L17.7992 56.8206C18.0811 55.8707 18.4128 54.8057 18.7943 53.6258C18.8441 53.5108 18.9009 53.3169 18.9645 53.044C19.236 52.2124 19.3778 51.7276 19.3899 51.5894L19.4158 51.2933C19.4296 51.1354 19.3889 50.8037 19.2939 50.2982C19.3146 50.0613 19.4125 49.8511 19.5876 49.6675C19.7825 49.4856 19.9984 49.405 20.2353 49.4257C20.4524 49.4447 20.627 49.6091 20.759 49.919C20.8911 50.2289 20.9416 50.5614 20.9106 50.9167C20.8761 51.3115 20.2358 53.4037 18.9898 57.1932C17.7439 60.9826 17.1105 62.9958 17.0898 63.2327C17.0709 63.4498 17.1601 63.567 17.3575 63.5842C17.4561 63.5929 17.645 63.4801 17.924 63.2459C18.1816 63.0297 18.3893 62.9285 18.5472 62.9423C18.8631 62.9699 19.0037 63.1811 18.9692 63.5759C18.9485 63.8128 18.7897 64.0376 18.4926 64.2503C18.1956 64.463 17.8634 64.6229 17.496 64.7301C17.1269 64.8569 16.8437 64.9117 16.6463 64.8945ZM21.1991 47.2723C20.8833 47.2447 20.6499 47.1846 20.4989 47.0918L20.3804 47.0815C19.808 47.0315 19.5511 46.6709 19.6097 45.9998C19.639 45.6642 19.8039 45.3703 20.1044 45.1181C20.4247 44.8677 20.7526 44.7571 21.0881 44.7864C21.4237 44.8157 21.7291 44.9617 22.0045 45.2245C22.3108 45.5893 22.4501 45.9297 22.4225 46.2455C22.3967 46.5416 22.2549 46.7977 21.9974 47.0139C21.7613 47.2121 21.4952 47.2982 21.1991 47.2723ZM22.9386 65.5636C22.7412 65.5463 22.5769 65.4922 22.4456 65.4011C22.3143 65.3101 22.2539 65.2054 22.2642 65.087C22.4901 64.5498 22.6783 63.9894 22.8287 63.4059C23.0307 62.6876 23.2421 62.0895 23.4629 61.6116C24.4982 58.639 25.472 55.2335 26.3842 51.3949L26.517 50.8994C26.529 50.7612 26.687 50.5463 26.991 50.2546C27.1755 50.1912 27.327 50.1646 27.4454 50.175C27.702 50.1974 27.865 50.3807 27.9344 50.7249L27.9137 50.9617C27.7802 52.2628 27.4294 53.7736 26.8614 55.4941L25.8496 58.5383L26.6947 57.0608C27.9315 54.7423 29.0702 53.0915 30.1108 52.1084C31.087 51.1793 32.1179 50.7622 33.2035 50.857C33.776 50.907 34.229 51.1853 34.5627 51.6918C34.916 52.2 35.0643 52.7798 35.0074 53.4312L34.9867 53.668C34.9618 53.7255 34.945 53.8036 34.9364 53.9023C36.1161 52.6927 37.3089 51.9019 38.5149 51.5299C38.9038 51.4047 39.2758 51.3577 39.6311 51.3887C40.0062 51.4215 40.3361 51.6293 40.6209 52.0122C40.9056 52.3951 41.0239 52.8629 40.9756 53.4156C40.8808 54.5012 40.5507 55.7751 39.9854 57.2374C39.6297 58.1212 39.3531 58.7832 39.1555 59.2234C37.9632 61.9436 37.2745 63.7928 37.0896 64.7711C37.0543 64.947 37.0049 65.1715 36.9413 65.4443C36.8794 65.6975 36.836 65.8528 36.8111 65.9103C36.6118 66.3703 36.3246 66.5838 35.9496 66.5511C35.4956 66.5114 35.3108 66.008 35.3953 65.0408C35.4471 64.4486 35.6125 63.8067 35.8917 63.1151C36.1159 62.5977 36.3561 62.012 36.6121 61.3581C36.692 61.1264 36.9295 60.5704 37.3247 59.69C37.8908 58.4466 38.3409 57.392 38.6751 56.5262C39.0093 55.6604 39.2723 54.6988 39.4641 53.6415C39.4969 53.2665 39.4674 53.0352 39.3756 52.9476C39.3053 52.842 39.1319 52.7772 38.8556 52.753C38.5595 52.7271 38.1295 52.8686 37.5655 53.1773C37.0212 53.4878 36.4666 53.9167 35.9017 54.464C34.6001 55.7028 33.5403 57.3605 32.7225 59.4371C32.4613 60.1502 32.2478 60.6586 32.082 60.9624C31.2582 62.8793 30.7414 64.127 30.5318 64.7054C30.3187 65.3232 30.1576 65.6871 30.0486 65.7969C29.9164 65.9444 29.7318 66.0079 29.495 65.9872C29.041 65.9475 28.8158 65.6792 28.8194 65.1823C29.1375 63.8178 29.5208 62.6182 29.9692 61.5833C30.4176 60.5484 30.9661 59.393 31.6146 58.1171C32.026 57.2779 32.3881 56.4344 32.7008 55.5866C33.035 54.7207 33.2289 53.9819 33.2823 53.37C33.341 52.6989 33.163 52.3452 32.7485 52.309C32.0576 52.2486 31.2112 52.831 30.2091 54.0562C29.2088 55.2616 28.2646 56.6211 27.3766 58.1347C26.4902 59.6285 25.9101 60.6917 25.636 61.3241C25.4651 61.687 25.3298 61.9835 25.2302 62.2135C25.1322 62.4237 25.0575 62.5962 25.006 62.7309C24.2001 64.6693 23.511 65.6136 22.9386 65.5636ZM39.6341 78.8365C39.338 78.8107 39.1875 78.5986 39.1825 78.2004C39.9713 76.0019 40.6811 73.7965 41.3119 71.5842L42.6063 67.0133L43.9006 62.4424L44.2462 61.2195C45.3944 57.1828 46.1671 54.4857 46.5641 53.1281L46.621 52.4767C46.6383 52.2793 46.7435 52.0996 46.9366 51.9375C47.1298 51.7753 47.3448 51.7046 47.5817 51.7253C47.7988 51.7443 47.9588 51.8478 48.0618 52.0358C48.1664 52.204 48.2101 52.3868 48.1928 52.5842C48.1687 52.8606 48.0943 53.1425 47.9698 53.4299L47.8177 53.8045C47.7645 53.959 47.7352 54.0658 47.7301 54.125L47.1293 56.2206C48.7867 53.6405 50.4248 52.4212 52.0434 52.5626C52.8921 52.6368 53.4816 52.9468 53.8118 53.4928C54.1635 54.0208 54.2953 54.7881 54.2074 55.7948C54.0418 57.6897 53.6107 59.5515 52.9139 61.3801C52.2171 63.2087 51.3094 64.7206 50.1906 65.9157C49.0486 67.1485 47.767 67.7028 46.3458 67.5787C45.7932 67.5304 45.3594 67.3732 45.0445 67.107C44.7477 66.8623 44.5247 66.4549 44.3756 65.885L43.8677 67.6008C43.2042 69.7307 42.7157 71.3389 42.402 72.4253C41.7179 74.792 41.0888 76.7559 40.5149 78.3168C40.3028 78.696 40.0092 78.8693 39.6341 78.8365ZM46.6747 66.2052C47.7011 66.2949 48.7153 65.7271 49.7174 64.502C50.9694 62.9207 51.892 60.7836 52.4853 58.0907C52.6581 57.2506 52.7713 56.5245 52.8247 55.9126C52.9368 54.6296 52.677 53.9605 52.0454 53.9053C51.4137 53.8501 50.6536 54.2412 49.765 55.0785C48.551 56.2255 47.5119 57.6463 46.6478 59.341C45.7855 61.0159 45.2983 62.4949 45.1862 63.7779C45.0534 65.2978 45.5496 66.1069 46.6747 66.2052ZM57.3129 68.3876C56.6023 68.3256 56.0759 68.0906 55.7336 67.6828C55.4111 67.2767 55.2765 66.7677 55.33 66.1558C55.3766 65.6229 55.4484 65.1419 55.5456 64.7128C55.6445 64.264 55.8142 63.5727 56.0549 62.6391C56.5311 60.8309 57.1186 58.774 57.8172 56.4681L58.913 52.8048C61.3193 44.8404 62.5989 40.666 62.7518 40.2816C62.8781 39.9744 63.109 39.8354 63.4446 39.8647C63.8591 39.9009 64.0465 40.146 64.0069 40.6L63.8212 41.3595C63.6673 41.9825 63.507 42.5652 63.3403 43.1076C63.1753 43.6302 62.8676 44.6475 62.4173 46.1595C61.6671 48.6001 60.7067 51.7383 59.5362 55.5741C58.3855 59.4117 57.6447 61.9724 57.3137 63.2562C56.9329 64.655 56.727 65.532 56.696 65.8873C56.6701 66.1834 56.7357 66.4576 56.8926 66.71C57.0496 66.9624 57.2564 67.0998 57.513 67.1222C57.7893 67.1464 58.0502 67.1195 58.2957 67.0415C58.5627 66.9454 58.7374 66.8811 58.8198 66.8486L59.3464 66.6261C59.5112 66.5609 59.6133 66.53 59.6528 66.5335C60.0871 66.5714 60.2852 66.8075 60.2473 67.2418C60.2093 67.676 59.9028 67.9973 59.3277 68.2056C58.7543 68.3942 58.0827 68.4549 57.3129 68.3876ZM65.472 69.1601C64.8404 69.1049 64.3555 68.9631 64.0175 68.7347C63.6811 68.4865 63.4234 68.1358 63.2442 67.6826C62.8969 66.8766 62.7707 65.9307 62.8656 64.8451C63.0311 62.9502 63.4742 61.1789 64.195 59.5314C64.9174 57.8641 65.823 56.4913 66.9117 55.4129C67.9557 54.3903 69.0403 53.9282 70.1654 54.0265C70.7576 54.0782 71.1999 54.3655 71.4923 54.8883C71.8063 55.393 71.933 55.9909 71.8727 56.6817C71.7675 57.8858 71.3603 58.9044 70.651 59.7374C69.9615 60.5722 69.0678 61.24 67.9699 61.7408C67.0154 62.1944 65.8634 62.6308 64.5141 63.0499L64.2686 65.1765C64.1238 66.8346 64.5547 67.7076 65.5614 67.7955C65.9759 67.8318 66.3776 67.7873 66.7664 67.6621C67.175 67.5387 67.6183 67.3587 68.0965 67.122C68.657 66.8527 69.0459 66.7276 69.263 66.7466C69.5985 66.7759 69.7508 66.9682 69.7198 67.3235C69.6973 67.5801 69.4239 67.8645 68.8994 68.1767C68.3946 68.4906 67.8053 68.7474 67.1315 68.9471C66.4594 69.127 65.9063 69.1981 65.472 69.1601ZM64.8751 61.6494C66.2442 61.232 67.2923 60.8462 68.0193 60.492C68.7464 60.1379 69.3152 59.6605 69.7257 59.0599C70.1559 58.461 70.4158 57.6484 70.5055 56.622C70.5728 55.8521 70.2807 55.4388 69.6293 55.3819C69.0569 55.3319 68.3401 55.7963 67.4789 56.7752C66.5782 57.7507 65.8069 59.0656 65.1652 60.72C64.9856 61.1817 64.8889 61.4915 64.8751 61.6494ZM72.2392 67.2452C72.2616 66.9886 72.3462 66.817 72.493 66.7304C72.6398 66.6438 72.8235 66.5902 73.0441 66.5697C73.2217 66.5852 73.3547 66.6565 73.4431 66.7836C73.5512 66.9124 73.6729 67.1119 73.8084 67.3823C73.9422 67.6725 74.0533 67.8811 74.1416 68.0081C74.2514 68.1172 74.4445 68.1838 74.7208 68.2079C75.3525 68.2631 75.8829 68.1105 76.3122 67.7503C76.7612 67.3917 77.009 66.9459 77.0556 66.413C77.1056 65.8406 77.0397 65.2282 76.8581 64.5758C76.6764 63.9235 76.3802 63.102 75.9695 62.1115C75.1377 60.2487 74.7676 58.7943 74.859 57.7481C74.9504 56.702 75.2803 55.8855 75.8487 55.2987C76.4368 54.7136 77.1848 54.4607 78.0928 54.5401C78.7245 54.5952 79.311 54.8255 79.8524 55.2308C80.3938 55.6361 80.6412 56.1052 80.5946 56.6382C80.5446 57.2106 80.2827 57.4761 79.809 57.4347C79.6708 57.4227 79.5558 57.3728 79.4641 57.2853C79.392 57.1994 79.3208 57.1037 79.2505 56.9981C79.1819 56.8728 79.1295 56.7886 79.0935 56.7457C78.7744 56.3002 78.3978 56.0584 77.9635 56.0205C76.9963 55.936 76.4635 56.4563 76.3652 57.5814C76.3118 58.1933 76.3759 58.8254 76.5576 59.4778C76.7393 60.1301 77.0247 60.9606 77.414 61.9692C77.7852 62.9563 78.0616 63.776 78.2433 64.4284C78.425 65.0807 78.4908 65.6931 78.4408 66.2655C78.3529 67.2722 77.9728 68.0942 77.3005 68.7316C76.6283 69.369 75.7334 69.7085 74.6159 69.7501C73.9251 69.6898 73.3437 69.4003 72.8719 68.8817C72.4018 68.3434 72.1909 67.7979 72.2392 67.2452ZM98.4935 71.8063C98.0395 71.7667 97.6358 71.4927 97.2824 70.9845C96.9505 70.4583 96.8086 69.9188 96.8569 69.3661C96.9638 68.1423 97.4706 66.0982 98.3772 63.2337C97.7906 64.2565 97.0534 65.296 96.1655 66.3521C95.2992 67.3902 94.4539 68.3009 93.6296 69.0842C92.8054 69.8674 92.2044 70.3718 91.8267 70.5974C91.3005 70.9293 90.7413 71.0694 90.1491 71.0177C89.024 70.9194 88.5235 70.1596 88.6477 68.7384C88.7684 67.3567 89.4415 65.6851 90.667 63.7237C91.8942 61.7425 93.2947 60.0549 94.8684 58.6609C96.4404 57.2866 97.6705 56.6383 98.5588 56.7159C99.4668 56.7952 99.9455 57.2348 99.995 58.0347C100.033 58.2768 100.041 58.536 100.017 58.8123C100.12 58.7617 100.232 58.7416 100.35 58.7519C100.804 58.7916 101.012 59.0286 100.974 59.4628L100.964 59.5812L100.495 60.853C100.132 61.8158 99.7182 63.2514 99.2531 65.16C98.788 67.0685 98.4995 68.6643 98.3874 69.9473L98.6679 70.1509C99.1158 70.4883 99.3268 70.8051 99.3009 71.1012C99.2837 71.2986 99.1991 71.4702 99.0471 71.616C98.8951 71.7619 98.7106 71.8253 98.4935 71.8063ZM90.5205 69.4987C90.7376 69.5177 90.9213 69.4641 91.0715 69.338C93.2349 67.7966 95.2291 65.5742 97.054 62.6706C97.8355 61.466 98.3225 60.6732 98.5149 60.2922C98.727 59.9129 98.8495 59.5358 98.8822 59.1607C98.8995 58.9633 98.8656 58.7814 98.7807 58.6148C98.6958 58.4483 98.5744 58.3581 98.4165 58.3443C98.2191 58.3271 97.9548 58.3935 97.6234 58.5436C96.7977 58.8891 95.7833 59.6856 94.5804 60.933C93.3973 62.1821 92.3947 63.5266 91.5728 64.9664C90.7097 66.4224 90.2264 67.7426 90.1229 68.927C90.0919 69.2823 90.2244 69.4729 90.5205 69.4987ZM102.368 69.8774C102.39 69.6208 102.475 69.4492 102.622 69.3626C102.769 69.276 102.952 69.2224 103.173 69.2019C103.35 69.2174 103.483 69.2887 103.572 69.4157C103.68 69.5445 103.802 69.7441 103.937 70.0145C104.071 70.3047 104.182 70.5133 104.27 70.6403C104.38 70.7494 104.573 70.8159 104.85 70.8401C105.481 70.8953 106.012 70.7427 106.441 70.3824C106.89 70.0239 107.138 69.5781 107.184 69.0452C107.234 68.4727 107.168 67.8604 106.987 67.208C106.805 66.5557 106.509 65.7342 106.098 64.7436C105.267 62.8809 104.896 61.4265 104.988 60.3803C105.079 59.3342 105.409 58.5177 105.977 57.9309C106.566 57.3458 107.314 57.0929 108.222 57.1722C108.853 57.2274 109.44 57.4577 109.981 57.863C110.523 58.2683 110.77 58.7374 110.723 59.2704C110.673 59.8428 110.411 60.1083 109.938 60.0669C109.8 60.0548 109.685 60.005 109.593 59.9174C109.521 59.8316 109.45 59.7359 109.379 59.6303C109.311 59.5049 109.258 59.4208 109.222 59.3779C108.903 58.9323 108.527 58.6906 108.092 58.6526C107.125 58.5681 106.592 59.0885 106.494 60.2136C106.441 60.8255 106.505 61.4576 106.686 62.1099C106.868 62.7623 107.153 63.5927 107.543 64.6013C107.914 65.5885 108.19 66.4082 108.372 67.0605C108.554 67.7129 108.62 68.3252 108.57 68.8977C108.482 69.9044 108.102 70.7264 107.429 71.3638C106.757 72.0012 105.862 72.3407 104.745 72.3823C104.054 72.3219 103.473 72.0325 103.001 71.5139C102.531 70.9756 102.32 70.4301 102.368 69.8774ZM111.505 70.6757C111.527 70.4191 111.612 70.2474 111.759 70.1608C111.906 70.0742 112.089 70.0206 112.31 70.0001C112.487 70.0156 112.62 70.0869 112.709 70.214C112.817 70.3428 112.939 70.5424 113.074 70.8128C113.208 71.1029 113.319 71.3115 113.407 71.4386C113.517 71.5476 113.71 71.6142 113.987 71.6383C114.618 71.6935 115.149 71.541 115.578 71.1807C116.027 70.8221 116.275 70.3764 116.321 69.8434C116.371 69.271 116.305 68.6586 116.124 68.0063C115.942 67.3539 115.646 66.5325 115.235 65.5419C114.403 63.6792 114.033 62.2247 114.125 61.1786C114.216 60.1324 114.546 59.3159 115.114 58.7291C115.702 58.144 116.451 57.8911 117.359 57.9705C117.99 58.0257 118.577 58.2559 119.118 58.6612C119.659 59.0665 119.907 59.5356 119.86 60.0686C119.81 60.641 119.548 60.9065 119.075 60.8652C118.937 60.8531 118.822 60.8033 118.73 60.7157C118.658 60.6298 118.586 60.5341 118.516 60.4285C118.448 60.3032 118.395 60.2191 118.359 60.1761C118.04 59.7306 117.663 59.4888 117.229 59.4509C116.262 59.3664 115.729 59.8867 115.631 61.0118C115.577 61.6237 115.642 62.2558 115.823 62.9082C116.005 63.5605 116.29 64.391 116.68 65.3996C117.051 66.3867 117.327 67.2064 117.509 67.8588C117.691 68.5111 117.757 69.1235 117.707 69.6959C117.619 70.7026 117.238 71.5246 116.566 72.162C115.894 72.7994 114.999 73.1389 113.882 73.1805C113.191 73.1202 112.609 72.8307 112.138 72.3122C111.668 71.7739 111.457 71.2284 111.505 70.6757ZM121.461 74.0515C120.79 73.9929 120.502 73.4208 120.596 72.3351C120.621 72.0588 120.691 71.8164 120.809 71.6079C120.937 71.2809 121.06 70.9038 121.177 70.4764L121.794 68.5315L122.614 65.9777C122.896 65.0277 123.227 63.9628 123.609 62.7828C123.659 62.6678 123.715 62.4739 123.779 62.201C124.051 61.3695 124.192 60.8846 124.204 60.7465L124.23 60.4504C124.244 60.2925 124.203 59.9607 124.108 59.4552C124.129 59.2183 124.227 59.0081 124.402 58.8245C124.597 58.6426 124.813 58.5621 125.05 58.5827C125.267 58.6017 125.442 58.7661 125.574 59.076C125.706 59.3859 125.756 59.7185 125.725 60.0738C125.691 60.4686 125.05 62.5607 123.804 66.3502C122.558 70.1397 121.925 72.1529 121.904 72.3897C121.885 72.6069 121.975 72.724 122.172 72.7413C122.271 72.7499 122.46 72.6371 122.739 72.4029C122.996 72.1868 123.204 72.0856 123.362 72.0994C123.678 72.127 123.818 72.3382 123.784 72.7329C123.763 72.9698 123.604 73.1946 123.307 73.4073C123.01 73.62 122.678 73.78 122.311 73.8871C121.941 74.014 121.658 74.0688 121.461 74.0515ZM126.014 56.4294C125.698 56.4018 125.464 56.3416 125.313 56.2489L125.195 56.2385C124.623 56.1885 124.366 55.8279 124.424 55.1568C124.454 54.8213 124.618 54.5274 124.919 54.2752C125.239 54.0247 125.567 53.9141 125.903 53.9434C126.238 53.9728 126.544 54.1188 126.819 54.3815C127.125 54.7464 127.265 55.0867 127.237 55.4026C127.211 55.6986 127.069 55.9548 126.812 56.1709C126.576 56.3691 126.31 56.4552 126.014 56.4294ZM127.753 74.7206C127.556 74.7034 127.391 74.6492 127.26 74.5582C127.129 74.4672 127.068 74.3624 127.079 74.244C127.305 73.7068 127.493 73.1465 127.643 72.5629C127.845 71.8447 128.057 71.2466 128.277 70.7686C129.313 67.7961 130.287 64.3905 131.199 60.552L131.332 60.0564C131.344 59.9182 131.502 59.7033 131.806 59.4116C131.99 59.3482 132.142 59.3216 132.26 59.332C132.517 59.3544 132.68 59.5377 132.749 59.8819L132.728 60.1188C132.595 61.4198 132.244 62.9306 131.676 64.6511L130.664 67.6953L131.509 66.2178C132.746 63.8993 133.885 62.2485 134.925 61.2654C135.902 60.3363 136.932 59.9192 138.018 60.0141C138.591 60.0641 139.044 60.3423 139.377 60.8488C139.731 61.357 139.879 61.9368 139.822 62.5882L139.801 62.8251C139.776 62.8826 139.76 62.9607 139.751 63.0594C140.931 61.8497 142.123 61.0589 143.329 60.6869C143.718 60.5618 144.09 60.5147 144.446 60.5458C144.821 60.5785 145.151 60.7864 145.435 61.1692C145.72 61.5521 145.838 62.0199 145.79 62.5726C145.695 63.6582 145.365 64.9322 144.8 66.3944C144.444 67.2782 144.168 67.9403 143.97 68.3805C142.778 71.1006 142.089 72.9498 141.904 73.9282C141.869 74.1041 141.819 74.3285 141.756 74.6014C141.694 74.8545 141.651 75.0099 141.626 75.0674C141.426 75.5273 141.139 75.7409 140.764 75.7081C140.31 75.6685 140.125 75.165 140.21 74.1978C140.262 73.6057 140.427 72.9638 140.706 72.2721C140.93 71.7547 141.171 71.169 141.427 70.5152C141.507 70.2835 141.744 69.7274 142.139 68.847C142.705 67.6037 143.155 66.5491 143.49 65.6832C143.824 64.8174 144.087 63.8559 144.279 62.7986C144.311 62.4235 144.282 62.1922 144.19 62.1047C144.12 61.9991 143.946 61.9342 143.67 61.91C143.374 61.8842 142.944 62.0256 142.38 62.3344C141.836 62.6448 141.281 63.0737 140.716 63.621C139.415 64.8598 138.355 66.5175 137.537 68.5941C137.276 69.3072 137.062 69.8156 136.897 70.1194C136.073 72.0364 135.556 73.2841 135.346 73.8624C135.133 74.4803 134.972 74.8441 134.863 74.9539C134.731 75.1015 134.546 75.1649 134.31 75.1442C133.856 75.1046 133.63 74.8363 133.634 74.3393C133.952 72.9749 134.335 71.7752 134.784 70.7403C135.232 69.7055 135.781 68.5501 136.429 67.2741C136.841 66.4349 137.203 65.5914 137.515 64.7436C137.85 63.8778 138.043 63.1389 138.097 62.527C138.156 61.8559 137.978 61.5022 137.563 61.466C136.872 61.4057 136.026 61.9881 135.024 63.2132C134.023 64.4186 133.079 65.7782 132.191 67.2917C131.305 68.7856 130.725 69.8487 130.451 70.4811C130.28 70.8441 130.144 71.1405 130.045 71.3705C129.947 71.5807 129.872 71.7532 129.82 71.8879C129.015 73.8264 128.326 74.7706 127.753 74.7206Z" fill="white"/>
</svg>
