<svg width="297" height="220" viewBox="0 0 297 220" fill="none" xmlns="http://www.w3.org/2000/svg">
<g clip-path="url(#clip0_760_44)">
<rect x="0.5" y="0.5" width="296" height="219" rx="15.5" fill="#232323" stroke="#363636"/>
<rect x="25" y="34" width="241.499" height="50.8211" rx="9.45508" fill="#E8FF43"/>
<path d="M271.62 84.8209C267.523 82.9299 266.433 71.4919 266.499 66.3047C265.054 70.9009 262.205 80.9601 261.574 82.0632C264.411 85.2149 269.453 85.2149 271.62 84.8209Z" fill="#E8FF43"/>
<path d="M250.083 67.9775L243.402 74.6585L240.365 71.6217" stroke="black" stroke-width="1.21472" stroke-linecap="round" stroke-linejoin="round"/>
<path d="M256.157 67.9775L249.476 74.6585L246.439 71.6217" stroke="black" stroke-width="1.21472" stroke-linecap="round" stroke-linejoin="round"/>
<path d="M196.342 74.0616V73.1522L199.562 68.0668H200.278V69.4054H199.824L197.521 73.0503V73.1085H201.933V74.0616H196.342ZM199.875 75.5166V73.7851L199.882 73.3704V68.0668H200.948V75.5166H199.875ZM203.932 74.5927C203.733 74.5927 203.562 74.5223 203.419 74.3817C203.276 74.2386 203.205 74.0664 203.205 73.8651C203.205 73.6663 203.276 73.4965 203.419 73.3559C203.562 73.2128 203.733 73.1413 203.932 73.1413C204.131 73.1413 204.302 73.2128 204.445 73.3559C204.588 73.4965 204.66 73.6663 204.66 73.8651C204.66 73.9985 204.626 74.121 204.558 74.2325C204.492 74.3417 204.405 74.429 204.296 74.4944C204.187 74.5599 204.066 74.5927 203.932 74.5927ZM203.932 70.8605C203.733 70.8605 203.562 70.7902 203.419 70.6495C203.276 70.5064 203.205 70.3342 203.205 70.133C203.205 69.9341 203.276 69.7644 203.419 69.6237C203.562 69.4806 203.733 69.4091 203.932 69.4091C204.131 69.4091 204.302 69.4806 204.445 69.6237C204.588 69.7644 204.66 69.9341 204.66 70.133C204.66 70.2663 204.626 70.3888 204.558 70.5004C204.492 70.6095 204.405 70.6968 204.296 70.7623C204.187 70.8277 204.066 70.8605 203.932 70.8605ZM208.696 75.6403C208.121 75.6379 207.63 75.4863 207.222 75.1856C206.815 74.8849 206.503 74.4471 206.288 73.8724C206.072 73.2977 205.964 72.6053 205.964 71.7953C205.964 70.9878 206.072 70.2979 206.288 69.7256C206.506 69.1532 206.819 68.7167 207.226 68.416C207.636 68.1153 208.126 67.965 208.696 67.965C209.266 67.965 209.754 68.1165 210.162 68.4197C210.569 68.7204 210.881 69.1569 211.096 69.7292C211.315 70.2991 211.424 70.9878 211.424 71.7953C211.424 72.6077 211.316 73.3013 211.1 73.876C210.884 74.4484 210.573 74.8861 210.165 75.1892C209.758 75.4899 209.268 75.6403 208.696 75.6403ZM208.696 74.669C209.2 74.669 209.594 74.4229 209.878 73.9306C210.164 73.4383 210.307 72.7266 210.307 71.7953C210.307 71.177 210.242 70.6544 210.111 70.2275C209.982 69.7983 209.797 69.4734 209.554 69.2527C209.314 69.0296 209.028 68.918 208.696 68.918C208.194 68.918 207.8 69.1654 207.513 69.6601C207.227 70.1548 207.083 70.8665 207.081 71.7953C207.081 72.4162 207.145 72.9412 207.273 73.3704C207.404 73.7972 207.59 74.121 207.83 74.3417C208.07 74.5599 208.359 74.669 208.696 74.669ZM212.714 75.5166V74.7018L215.235 72.09C215.504 71.8063 215.726 71.5577 215.901 71.3443C216.078 71.1285 216.21 70.9235 216.297 70.7295C216.385 70.5355 216.428 70.3294 216.428 70.1111C216.428 69.8638 216.37 69.6504 216.254 69.4709C216.137 69.289 215.978 69.1496 215.777 69.0526C215.576 68.9532 215.349 68.9035 215.097 68.9035C214.83 68.9035 214.597 68.958 214.399 69.0672C214.2 69.1763 214.047 69.3303 213.94 69.5291C213.833 69.728 213.78 69.9608 213.78 70.2275H212.707C212.707 69.7741 212.811 69.3776 213.02 69.0381C213.228 68.6985 213.515 68.4354 213.878 68.2487C214.242 68.0595 214.656 67.965 215.119 67.965C215.587 67.965 215.999 68.0583 216.356 68.2451C216.714 68.4294 216.995 68.6816 217.196 69.0017C217.397 69.3194 217.498 69.6783 217.498 70.0784C217.498 70.3549 217.446 70.6253 217.341 70.8896C217.239 71.1539 217.061 71.4486 216.807 71.7735C216.552 72.0961 216.198 72.4877 215.744 72.9485L214.264 74.4981V74.5526H217.618V75.5166H212.714ZM221.809 75.5166V68.0668H224.465C225.044 68.0668 225.524 68.1723 225.905 68.3833C226.286 68.5943 226.571 68.8828 226.76 69.249C226.949 69.6128 227.044 70.0226 227.044 70.4785C227.044 70.9369 226.948 71.3491 226.756 71.7153C226.567 72.0791 226.281 72.3677 225.898 72.5811C225.517 72.792 225.038 72.8975 224.461 72.8975H222.635V71.9445H224.359C224.725 71.9445 225.022 71.8814 225.25 71.7553C225.478 71.6268 225.646 71.4522 225.752 71.2315C225.859 71.0108 225.912 70.7598 225.912 70.4785C225.912 70.1972 225.859 69.9474 225.752 69.7292C225.646 69.5109 225.477 69.34 225.247 69.2163C225.019 69.0926 224.718 69.0308 224.345 69.0308H222.933V75.5166H221.809ZM228.361 68.0668H229.725L232.097 73.8579H232.185L234.556 68.0668H235.92V75.5166H234.851V70.1257H234.782L232.585 75.5057H231.697L229.5 70.1221H229.431V75.5166H228.361V68.0668Z" fill="#606263"/>
<rect x="25" y="97" width="241.499" height="50.8211" rx="9.45508" fill="#E8FF43"/>
<path d="M271.62 147.821C267.523 145.93 266.433 134.492 266.499 129.305C265.054 133.901 262.205 143.96 261.574 145.063C264.411 148.215 269.453 148.215 271.62 147.821Z" fill="#E8FF43"/>
<path d="M250.083 130.978L243.402 137.658L240.365 134.622" stroke="black" stroke-width="1.21472" stroke-linecap="round" stroke-linejoin="round"/>
<path d="M256.157 130.978L249.476 137.658L246.439 134.622" stroke="black" stroke-width="1.21472" stroke-linecap="round" stroke-linejoin="round"/>
<path d="M196.342 137.062V136.152L199.562 131.067H200.278V132.405H199.824L197.521 136.05V136.109H201.933V137.062H196.342ZM199.875 138.517V136.785L199.882 136.37V131.067H200.948V138.517H199.875ZM203.932 137.593C203.733 137.593 203.562 137.522 203.419 137.382C203.276 137.239 203.205 137.066 203.205 136.865C203.205 136.666 203.276 136.497 203.419 136.356C203.562 136.213 203.733 136.141 203.932 136.141C204.131 136.141 204.302 136.213 204.445 136.356C204.588 136.497 204.66 136.666 204.66 136.865C204.66 136.999 204.626 137.121 204.558 137.233C204.492 137.342 204.405 137.429 204.296 137.494C204.187 137.56 204.066 137.593 203.932 137.593ZM203.932 133.86C203.733 133.86 203.562 133.79 203.419 133.65C203.276 133.506 203.205 133.334 203.205 133.133C203.205 132.934 203.276 132.764 203.419 132.624C203.562 132.481 203.733 132.409 203.932 132.409C204.131 132.409 204.302 132.481 204.445 132.624C204.588 132.764 204.66 132.934 204.66 133.133C204.66 133.266 204.626 133.389 204.558 133.5C204.492 133.609 204.405 133.697 204.296 133.762C204.187 133.828 204.066 133.86 203.932 133.86ZM208.696 138.64C208.121 138.638 207.63 138.486 207.222 138.186C206.815 137.885 206.503 137.447 206.288 136.872C206.072 136.298 205.964 135.605 205.964 134.795C205.964 133.988 206.072 133.298 206.288 132.726C206.506 132.153 206.819 131.717 207.226 131.416C207.636 131.115 208.126 130.965 208.696 130.965C209.266 130.965 209.754 131.117 210.162 131.42C210.569 131.72 210.881 132.157 211.096 132.729C211.315 133.299 211.424 133.988 211.424 134.795C211.424 135.608 211.316 136.301 211.1 136.876C210.884 137.448 210.573 137.886 210.165 138.189C209.758 138.49 209.268 138.64 208.696 138.64ZM208.696 137.669C209.2 137.669 209.594 137.423 209.878 136.931C210.164 136.438 210.307 135.727 210.307 134.795C210.307 134.177 210.242 133.654 210.111 133.228C209.982 132.798 209.797 132.473 209.554 132.253C209.314 132.03 209.028 131.918 208.696 131.918C208.194 131.918 207.8 132.165 207.513 132.66C207.227 133.155 207.083 133.867 207.081 134.795C207.081 135.416 207.145 135.941 207.273 136.37C207.404 136.797 207.59 137.121 207.83 137.342C208.07 137.56 208.359 137.669 208.696 137.669ZM215.308 138.618C214.808 138.618 214.362 138.532 213.969 138.36C213.579 138.188 213.27 137.949 213.042 137.644C212.816 137.336 212.695 136.979 212.678 136.574H213.82C213.835 136.795 213.909 136.986 214.042 137.149C214.178 137.309 214.355 137.433 214.573 137.52C214.791 137.607 215.034 137.651 215.301 137.651C215.594 137.651 215.854 137.6 216.079 137.498C216.307 137.396 216.485 137.254 216.614 137.072C216.742 136.888 216.807 136.676 216.807 136.436C216.807 136.186 216.742 135.967 216.614 135.777C216.488 135.586 216.302 135.436 216.057 135.326C215.815 135.217 215.521 135.163 215.177 135.163H214.548V134.246H215.177C215.453 134.246 215.696 134.196 215.904 134.097C216.115 133.998 216.28 133.859 216.399 133.682C216.518 133.503 216.577 133.293 216.577 133.053C216.577 132.823 216.525 132.622 216.421 132.453C216.319 132.281 216.174 132.146 215.984 132.049C215.798 131.952 215.577 131.903 215.322 131.903C215.08 131.903 214.853 131.948 214.642 132.038C214.434 132.125 214.264 132.251 214.133 132.416C214.002 132.579 213.932 132.774 213.922 133.002H212.834C212.846 132.599 212.965 132.245 213.191 131.94C213.419 131.634 213.719 131.395 214.093 131.223C214.466 131.051 214.881 130.965 215.337 130.965C215.815 130.965 216.227 131.058 216.574 131.245C216.923 131.429 217.192 131.676 217.381 131.983C217.573 132.291 217.667 132.629 217.665 132.995C217.667 133.412 217.551 133.766 217.316 134.057C217.083 134.348 216.773 134.543 216.385 134.643V134.701C216.879 134.776 217.263 134.972 217.534 135.29C217.808 135.608 217.944 136.002 217.942 136.472C217.944 136.882 217.83 137.25 217.6 137.574C217.372 137.899 217.06 138.155 216.665 138.342C216.269 138.526 215.817 138.618 215.308 138.618ZM222.129 138.517V131.067H224.785C225.364 131.067 225.844 131.172 226.225 131.383C226.606 131.594 226.891 131.883 227.08 132.249C227.269 132.613 227.364 133.023 227.364 133.479C227.364 133.937 227.268 134.349 227.076 134.715C226.887 135.079 226.601 135.368 226.218 135.581C225.837 135.792 225.358 135.898 224.781 135.898H222.955V134.944H224.679C225.045 134.944 225.343 134.881 225.57 134.755C225.798 134.627 225.966 134.452 226.072 134.232C226.179 134.011 226.232 133.76 226.232 133.479C226.232 133.197 226.179 132.947 226.072 132.729C225.966 132.511 225.797 132.34 225.567 132.216C225.339 132.093 225.038 132.031 224.665 132.031H223.253V138.517H222.129ZM228.682 131.067H230.046L232.417 136.858H232.505L234.876 131.067H236.24V138.517H235.171V133.126H235.102L232.905 138.506H232.017L229.82 133.122H229.751V138.517H228.682V131.067Z" fill="#606263"/>
<g clip-path="url(#clip1_760_44)">
<rect x="25" y="160" width="241.499" height="50.8211" rx="9.45508" fill="#E8FF43"/>
<path d="M271.62 210.821C267.523 208.93 266.433 197.492 266.499 192.305C265.054 196.901 262.205 206.96 261.574 208.063C264.411 211.215 269.453 211.215 271.62 210.821Z" fill="#E8FF43"/>
<path d="M250.083 193.977L243.402 200.657L240.365 197.621" stroke="black" stroke-width="1.21472" stroke-linecap="round" stroke-linejoin="round"/>
<path d="M256.157 193.977L249.476 200.657L246.439 197.621" stroke="black" stroke-width="1.21472" stroke-linecap="round" stroke-linejoin="round"/>
<path d="M196.342 200.061V199.151L199.562 194.066H200.278V195.404H199.824L197.521 199.049V199.108H201.933V200.061H196.342ZM199.875 201.516V199.784L199.882 199.369V194.066H200.948V201.516H199.875ZM203.932 200.592C203.733 200.592 203.562 200.521 203.419 200.381C203.276 200.238 203.205 200.065 203.205 199.864C203.205 199.665 203.276 199.496 203.419 199.355C203.562 199.212 203.733 199.14 203.932 199.14C204.131 199.14 204.302 199.212 204.445 199.355C204.588 199.496 204.66 199.665 204.66 199.864C204.66 199.998 204.626 200.12 204.558 200.232C204.492 200.341 204.405 200.428 204.296 200.493C204.187 200.559 204.066 200.592 203.932 200.592ZM203.932 196.86C203.733 196.86 203.562 196.789 203.419 196.649C203.276 196.505 203.205 196.333 203.205 196.132C203.205 195.933 203.276 195.763 203.419 195.623C203.562 195.48 203.733 195.408 203.932 195.408C204.131 195.408 204.302 195.48 204.445 195.623C204.588 195.763 204.66 195.933 204.66 196.132C204.66 196.265 204.626 196.388 204.558 196.499C204.492 196.609 204.405 196.696 204.296 196.761C204.187 196.827 204.066 196.86 203.932 196.86ZM208.696 201.639C208.121 201.637 207.63 201.485 207.222 201.185C206.815 200.884 206.503 200.446 206.288 199.871C206.072 199.297 205.964 198.604 205.964 197.794C205.964 196.987 206.072 196.297 206.288 195.725C206.506 195.152 206.819 194.716 207.226 194.415C207.636 194.114 208.126 193.964 208.696 193.964C209.266 193.964 209.754 194.116 210.162 194.419C210.569 194.719 210.881 195.156 211.096 195.728C211.315 196.298 211.424 196.987 211.424 197.794C211.424 198.607 211.316 199.3 211.1 199.875C210.884 200.447 210.573 200.885 210.165 201.188C209.758 201.489 209.268 201.639 208.696 201.639ZM208.696 200.668C209.2 200.668 209.594 200.422 209.878 199.93C210.164 199.437 210.307 198.726 210.307 197.794C210.307 197.176 210.242 196.653 210.111 196.227C209.982 195.797 209.797 195.472 209.554 195.252C209.314 195.029 209.028 194.917 208.696 194.917C208.194 194.917 207.8 195.164 207.513 195.659C207.227 196.154 207.083 196.866 207.081 197.794C207.081 198.415 207.145 198.94 207.273 199.369C207.404 199.796 207.59 200.12 207.83 200.341C208.07 200.559 208.359 200.668 208.696 200.668ZM212.558 200.061V199.151L215.777 194.066H216.494V195.404H216.039L213.736 199.049V199.108H218.149V200.061H212.558ZM216.09 201.516V199.784L216.097 199.369V194.066H217.163V201.516H216.09ZM222.229 201.516V194.066H224.885C225.464 194.066 225.945 194.171 226.325 194.382C226.706 194.593 226.991 194.882 227.18 195.248C227.369 195.612 227.464 196.022 227.464 196.478C227.464 196.936 227.368 197.348 227.176 197.714C226.987 198.078 226.701 198.367 226.318 198.58C225.937 198.791 225.458 198.897 224.881 198.897H223.055V197.944H224.779C225.145 197.944 225.443 197.88 225.67 197.754C225.898 197.626 226.066 197.451 226.172 197.231C226.279 197.01 226.333 196.759 226.333 196.478C226.333 196.196 226.279 195.946 226.172 195.728C226.066 195.51 225.897 195.339 225.667 195.215C225.439 195.092 225.138 195.03 224.765 195.03H223.353V201.516H222.229ZM228.782 194.066H230.146L232.517 199.857H232.605L234.976 194.066H236.34V201.516H235.271V196.125H235.202L233.005 201.505H232.117L229.92 196.121H229.851V201.516H228.782V194.066Z" fill="#606263"/>
</g>
<path d="M16 153H281V219H16V153Z" fill="url(#paint0_linear_760_44)"/>
</g>
<defs>
<linearGradient id="paint0_linear_760_44" x1="148.946" y1="180" x2="148.946" y2="211" gradientUnits="userSpaceOnUse">
<stop stop-color="#232323" stop-opacity="0"/>
<stop offset="0.509615" stop-color="#232323" stop-opacity="0.45"/>
<stop offset="1" stop-color="#232323"/>
</linearGradient>
<clipPath id="clip0_760_44">
<rect width="297" height="220" fill="white"/>
</clipPath>
<clipPath id="clip1_760_44">
<rect width="247" height="51" fill="white" transform="translate(25 160)"/>
</clipPath>
</defs>
</svg>
