<svg width="592" height="494" viewBox="0 0 592 494" fill="none" xmlns="http://www.w3.org/2000/svg">
<g clip-path="url(#clip0_761_27)">
<rect x="0.996633" y="0.996633" width="590.007" height="492.007" rx="30.8956" fill="#232323" stroke="#363636" stroke-width="1.99327"/>
<rect x="50.8287" y="156.471" width="490.343" height="93.6835" rx="10.963" fill="#393939" stroke="#434343" stroke-width="1.99327"/>
<rect x="414.6" y="187.367" width="96.9192" height="31.9731" rx="9.35968" fill="#828C3E" fill-opacity="0.52"/>
<path d="M432.55 211.578C431.576 211.578 430.709 211.347 429.948 210.886C429.187 210.424 428.588 209.794 428.151 208.995C427.714 208.184 427.496 207.279 427.496 206.281C427.496 205.27 427.708 204.371 428.132 203.585C428.569 202.799 429.155 202.181 429.892 201.732C430.64 201.27 431.477 201.039 432.4 201.039C433.149 201.039 433.81 201.176 434.384 201.451C434.971 201.713 435.464 202.075 435.863 202.537C436.275 202.986 436.587 203.504 436.799 204.09C437.024 204.664 437.136 205.263 437.136 205.887C437.136 206.025 437.124 206.181 437.099 206.355C437.086 206.518 437.067 206.674 437.042 206.823H428.768V205.326H436.032L435.208 206C435.32 205.351 435.258 204.771 435.021 204.259C434.784 203.747 434.434 203.342 433.972 203.042C433.511 202.743 432.987 202.593 432.4 202.593C431.813 202.593 431.277 202.743 430.79 203.042C430.303 203.342 429.923 203.772 429.648 204.334C429.386 204.883 429.28 205.538 429.33 206.299C429.28 207.036 429.392 207.685 429.667 208.246C429.954 208.795 430.353 209.226 430.865 209.538C431.389 209.837 431.957 209.987 432.568 209.987C433.242 209.987 433.81 209.831 434.272 209.519C434.734 209.207 435.108 208.808 435.395 208.321L436.855 209.07C436.656 209.531 436.344 209.956 435.919 210.343C435.507 210.717 435.014 211.017 434.44 211.241C433.879 211.466 433.249 211.578 432.55 211.578ZM439.406 211.354V201.264H441.109V203.229L440.829 203.061C441.078 202.424 441.477 201.931 442.027 201.582C442.588 201.22 443.243 201.039 443.992 201.039C444.716 201.039 445.359 201.201 445.92 201.526C446.494 201.85 446.944 202.3 447.268 202.874C447.605 203.448 447.773 204.097 447.773 204.82V211.354H446.014V205.382C446.014 204.82 445.914 204.346 445.714 203.959C445.515 203.572 445.228 203.273 444.853 203.061C444.491 202.836 444.073 202.724 443.599 202.724C443.125 202.724 442.7 202.836 442.326 203.061C441.964 203.273 441.677 203.579 441.465 203.978C441.253 204.365 441.147 204.833 441.147 205.382V211.354H439.406ZM452.89 211.354L448.94 201.264H450.887L454.05 209.8H453.376L456.559 201.264H458.505L454.537 211.354H452.89ZM460.063 211.354V201.264H461.804V211.354H460.063ZM460.063 199.654V197.408H461.804V199.654H460.063ZM467.463 211.578C466.801 211.578 466.215 211.46 465.703 211.222C465.204 210.973 464.811 210.636 464.524 210.212C464.237 209.775 464.093 209.276 464.093 208.714C464.093 208.177 464.206 207.697 464.43 207.273C464.667 206.836 465.029 206.468 465.516 206.168C466.015 205.869 466.639 205.657 467.388 205.532L471.132 204.914V206.374L467.781 206.936C467.132 207.048 466.658 207.254 466.358 207.553C466.071 207.853 465.928 208.221 465.928 208.658C465.928 209.07 466.09 209.413 466.415 209.687C466.752 209.962 467.17 210.099 467.669 210.099C468.305 210.099 468.854 209.968 469.316 209.706C469.79 209.432 470.158 209.064 470.421 208.602C470.695 208.14 470.832 207.628 470.832 207.067V204.502C470.832 203.953 470.626 203.51 470.215 203.173C469.815 202.824 469.285 202.649 468.623 202.649C468.049 202.649 467.538 202.799 467.088 203.098C466.652 203.385 466.327 203.772 466.115 204.259L464.599 203.473C464.786 203.011 465.085 202.599 465.497 202.237C465.909 201.863 466.39 201.57 466.939 201.357C467.488 201.145 468.062 201.039 468.661 201.039C469.435 201.039 470.115 201.189 470.701 201.488C471.288 201.775 471.743 202.181 472.068 202.705C472.405 203.217 472.573 203.816 472.573 204.502V211.354H470.87V209.444L471.188 209.556C470.976 209.956 470.689 210.305 470.327 210.605C469.965 210.904 469.541 211.141 469.054 211.316C468.567 211.491 468.037 211.578 467.463 211.578ZM479.859 211.578C478.91 211.578 478.055 211.347 477.294 210.886C476.545 210.424 475.953 209.794 475.516 208.995C475.079 208.196 474.861 207.304 474.861 206.318C474.861 205.307 475.079 204.409 475.516 203.622C475.953 202.824 476.545 202.194 477.294 201.732C478.055 201.27 478.91 201.039 479.859 201.039C480.695 201.039 481.437 201.22 482.086 201.582C482.735 201.931 483.247 202.406 483.621 203.005L483.341 203.435V197.183H485.1V211.354H483.397V209.201L483.621 209.5C483.272 210.162 482.76 210.673 482.086 211.035C481.425 211.397 480.682 211.578 479.859 211.578ZM480.008 209.893C480.645 209.893 481.213 209.737 481.712 209.425C482.211 209.113 482.604 208.689 482.891 208.153C483.191 207.603 483.341 206.992 483.341 206.318C483.341 205.632 483.191 205.02 482.891 204.484C482.604 203.934 482.211 203.504 481.712 203.192C481.213 202.88 480.645 202.724 480.008 202.724C479.385 202.724 478.817 202.886 478.305 203.211C477.806 203.523 477.413 203.947 477.126 204.484C476.839 205.008 476.695 205.619 476.695 206.318C476.695 206.992 476.839 207.603 477.126 208.153C477.413 208.689 477.806 209.113 478.305 209.425C478.804 209.737 479.372 209.893 480.008 209.893ZM492.587 211.578C491.613 211.578 490.734 211.354 489.947 210.904C489.161 210.443 488.537 209.812 488.076 209.014C487.614 208.215 487.383 207.31 487.383 206.299C487.383 205.288 487.608 204.39 488.057 203.604C488.519 202.817 489.143 202.194 489.929 201.732C490.715 201.27 491.601 201.039 492.587 201.039C493.56 201.039 494.44 201.27 495.226 201.732C496.013 202.181 496.63 202.799 497.08 203.585C497.541 204.371 497.772 205.276 497.772 206.299C497.772 207.323 497.535 208.234 497.061 209.032C496.587 209.819 495.956 210.443 495.17 210.904C494.396 211.354 493.535 211.578 492.587 211.578ZM492.587 209.893C493.211 209.893 493.772 209.737 494.272 209.425C494.783 209.113 495.183 208.683 495.47 208.134C495.769 207.585 495.919 206.973 495.919 206.299C495.919 205.613 495.769 205.008 495.47 204.484C495.183 203.947 494.783 203.523 494.272 203.211C493.772 202.886 493.211 202.724 492.587 202.724C491.95 202.724 491.376 202.886 490.865 203.211C490.366 203.523 489.966 203.947 489.667 204.484C489.367 205.008 489.217 205.613 489.217 206.299C489.217 206.973 489.367 207.585 489.667 208.134C489.966 208.683 490.366 209.113 490.865 209.425C491.376 209.737 491.95 209.893 492.587 209.893Z" fill="#E8FF43"/>
<circle cx="103.65" cy="203.313" r="33.8855" fill="#545454"/>
<path d="M113.963 216.574V213.628C113.963 212.065 113.342 210.566 112.237 209.46C111.132 208.355 109.633 207.734 108.07 207.734H99.23C97.6671 207.734 96.1681 208.355 95.063 209.46C93.9578 210.566 93.3369 212.065 93.3369 213.628V216.574" stroke="#979797" stroke-width="2.94648" stroke-linecap="round" stroke-linejoin="round"/>
<path d="M103.649 201.839C106.904 201.839 109.542 199.201 109.542 195.946C109.542 192.691 106.904 190.053 103.649 190.053C100.394 190.053 97.7559 192.691 97.7559 195.946C97.7559 199.201 100.394 201.839 103.649 201.839Z" stroke="#979797" stroke-width="2.94648" stroke-linecap="round" stroke-linejoin="round"/>
<path d="M162.595 196.428V193.577H163.709C164.573 193.577 165.264 193.327 165.782 192.826C166.301 192.308 166.56 191.617 166.56 190.753V177.123H169.592V190.649C169.592 191.824 169.35 192.843 168.866 193.707C168.4 194.571 167.717 195.244 166.819 195.728C165.938 196.195 164.901 196.428 163.709 196.428H162.595ZM180.025 196.739C178.678 196.739 177.443 196.419 176.32 195.78C175.214 195.141 174.333 194.268 173.677 193.163C173.02 192.057 172.692 190.805 172.692 189.405C172.692 187.989 173.02 186.736 173.677 185.648C174.333 184.543 175.214 183.679 176.32 183.057C177.425 182.418 178.66 182.098 180.025 182.098C181.407 182.098 182.642 182.418 183.731 183.057C184.836 183.679 185.709 184.543 186.348 185.648C187.004 186.736 187.333 187.989 187.333 189.405C187.333 190.822 187.004 192.083 186.348 193.189C185.691 194.294 184.81 195.167 183.705 195.806C182.599 196.428 181.373 196.739 180.025 196.739ZM180.025 194.018C180.854 194.018 181.589 193.819 182.228 193.422C182.867 193.025 183.368 192.48 183.731 191.789C184.111 191.081 184.301 190.286 184.301 189.405C184.301 188.524 184.111 187.738 183.731 187.047C183.368 186.356 182.867 185.812 182.228 185.415C181.589 185.018 180.854 184.819 180.025 184.819C179.213 184.819 178.479 185.018 177.823 185.415C177.183 185.812 176.674 186.356 176.294 187.047C175.931 187.738 175.75 188.524 175.75 189.405C175.75 190.286 175.931 191.081 176.294 191.789C176.674 192.48 177.183 193.025 177.823 193.422C178.479 193.819 179.213 194.018 180.025 194.018ZM194.389 196.739C193.439 196.739 192.601 196.575 191.875 196.246C191.167 195.901 190.614 195.434 190.217 194.847C189.82 194.242 189.621 193.534 189.621 192.722C189.621 191.962 189.785 191.28 190.113 190.675C190.459 190.071 190.986 189.561 191.694 189.146C192.402 188.732 193.292 188.438 194.363 188.265L199.235 187.462V189.768L194.933 190.52C194.156 190.658 193.586 190.908 193.223 191.271C192.86 191.617 192.679 192.066 192.679 192.619C192.679 193.154 192.877 193.595 193.275 193.94C193.689 194.268 194.216 194.432 194.855 194.432C195.65 194.432 196.341 194.26 196.928 193.914C197.533 193.569 197.999 193.111 198.328 192.541C198.656 191.954 198.82 191.306 198.82 190.597V186.996C198.82 186.305 198.561 185.743 198.043 185.311C197.542 184.862 196.868 184.638 196.021 184.638C195.244 184.638 194.562 184.845 193.974 185.259C193.404 185.657 192.981 186.175 192.705 186.814L190.269 185.596C190.528 184.905 190.951 184.301 191.539 183.782C192.126 183.247 192.808 182.832 193.586 182.539C194.38 182.245 195.218 182.098 196.099 182.098C197.205 182.098 198.181 182.305 199.027 182.72C199.891 183.135 200.556 183.713 201.023 184.456C201.506 185.182 201.748 186.028 201.748 186.996V196.428H198.95V193.888L199.546 193.966C199.217 194.536 198.794 195.028 198.276 195.443C197.775 195.858 197.196 196.177 196.54 196.402C195.901 196.626 195.184 196.739 194.389 196.739ZM197.887 179.844C197.421 179.844 197.032 179.766 196.721 179.611C196.427 179.455 196.168 179.282 195.944 179.092C195.736 178.902 195.521 178.73 195.296 178.574C195.089 178.419 194.838 178.341 194.544 178.341C194.251 178.341 194.026 178.453 193.871 178.678C193.715 178.902 193.638 179.256 193.638 179.74H191.331C191.331 178.462 191.616 177.52 192.186 176.916C192.757 176.294 193.465 175.983 194.311 175.983C194.795 175.983 195.184 176.061 195.477 176.216C195.788 176.354 196.056 176.527 196.281 176.734C196.505 176.924 196.721 177.097 196.928 177.253C197.153 177.391 197.403 177.46 197.68 177.46C198.008 177.46 198.241 177.339 198.38 177.097C198.535 176.855 198.613 176.518 198.613 176.086H200.893C200.893 177.296 200.599 178.229 200.012 178.885C199.442 179.524 198.734 179.844 197.887 179.844ZM211.935 196.739C210.588 196.739 209.352 196.419 208.229 195.78C207.124 195.141 206.243 194.268 205.586 193.163C204.93 192.057 204.602 190.805 204.602 189.405C204.602 187.989 204.93 186.736 205.586 185.648C206.243 184.543 207.124 183.679 208.229 183.057C209.335 182.418 210.57 182.098 211.935 182.098C213.317 182.098 214.552 182.418 215.64 183.057C216.746 183.679 217.618 184.543 218.258 185.648C218.914 186.736 219.242 187.989 219.242 189.405C219.242 190.822 218.914 192.083 218.258 193.189C217.601 194.294 216.72 195.167 215.615 195.806C214.509 196.428 213.282 196.739 211.935 196.739ZM211.935 194.018C212.764 194.018 213.498 193.819 214.138 193.422C214.777 193.025 215.278 192.48 215.64 191.789C216.021 191.081 216.211 190.286 216.211 189.405C216.211 188.524 216.021 187.738 215.64 187.047C215.278 186.356 214.777 185.812 214.138 185.415C213.498 185.018 212.764 184.819 211.935 184.819C211.123 184.819 210.389 185.018 209.732 185.415C209.093 185.812 208.584 186.356 208.204 187.047C207.841 187.738 207.659 188.524 207.659 189.405C207.659 190.286 207.841 191.081 208.204 191.789C208.584 192.48 209.093 193.025 209.732 193.422C210.389 193.819 211.123 194.018 211.935 194.018ZM226.916 196.428V177.123H229.973V193.707H238.317V196.428H226.916ZM245.6 196.739C244.546 196.739 243.622 196.505 242.827 196.039C242.033 195.555 241.411 194.89 240.962 194.044C240.53 193.18 240.314 192.187 240.314 191.064V182.409H243.242V190.805C243.242 191.444 243.372 192.005 243.631 192.489C243.89 192.973 244.253 193.353 244.719 193.629C245.186 193.888 245.721 194.018 246.326 194.018C246.948 194.018 247.492 193.88 247.958 193.603C248.425 193.327 248.787 192.938 249.046 192.437C249.323 191.936 249.461 191.349 249.461 190.675V182.409H252.363V196.428H249.591V193.681L249.902 194.044C249.573 194.908 249.029 195.573 248.269 196.039C247.509 196.505 246.619 196.739 245.6 196.739ZM262.442 196.739C261.042 196.739 259.799 196.419 258.71 195.78C257.639 195.123 256.784 194.242 256.145 193.137C255.523 192.031 255.212 190.779 255.212 189.38C255.212 187.998 255.523 186.754 256.145 185.648C256.767 184.543 257.622 183.679 258.71 183.057C259.799 182.418 261.042 182.098 262.442 182.098C263.392 182.098 264.281 182.271 265.111 182.616C265.94 182.945 266.657 183.402 267.261 183.99C267.883 184.577 268.341 185.259 268.635 186.037L266.069 187.229C265.776 186.503 265.301 185.925 264.644 185.493C264.005 185.044 263.271 184.819 262.442 184.819C261.647 184.819 260.93 185.018 260.291 185.415C259.669 185.795 259.177 186.339 258.814 187.047C258.451 187.738 258.27 188.524 258.27 189.405C258.27 190.286 258.451 191.081 258.814 191.789C259.177 192.48 259.669 193.025 260.291 193.422C260.93 193.819 261.647 194.018 262.442 194.018C263.288 194.018 264.022 193.802 264.644 193.37C265.283 192.921 265.758 192.325 266.069 191.582L268.635 192.8C268.358 193.543 267.909 194.217 267.287 194.821C266.683 195.409 265.966 195.875 265.136 196.22C264.307 196.566 263.409 196.739 262.442 196.739ZM275.568 196.739C274.618 196.739 273.78 196.575 273.054 196.246C272.346 195.901 271.793 195.434 271.396 194.847C270.999 194.242 270.8 193.534 270.8 192.722C270.8 191.962 270.964 191.28 271.292 190.675C271.638 190.071 272.165 189.561 272.873 189.146C273.581 188.732 274.471 188.438 275.542 188.265L280.414 187.462V189.768L276.112 190.52C275.335 190.658 274.765 190.908 274.402 191.271C274.039 191.617 273.858 192.066 273.858 192.619C273.858 193.154 274.056 193.595 274.454 193.94C274.868 194.268 275.395 194.432 276.034 194.432C276.829 194.432 277.52 194.26 278.107 193.914C278.712 193.569 279.178 193.111 279.507 192.541C279.835 191.954 279.999 191.306 279.999 190.597V186.996C279.999 186.305 279.74 185.743 279.222 185.311C278.721 184.862 278.047 184.638 277.2 184.638C276.423 184.638 275.741 184.845 275.153 185.259C274.583 185.657 274.16 186.175 273.884 186.814L271.448 185.596C271.707 184.905 272.13 184.301 272.718 183.782C273.305 183.247 273.987 182.832 274.765 182.539C275.559 182.245 276.397 182.098 277.278 182.098C278.384 182.098 279.36 182.305 280.206 182.72C281.07 183.135 281.735 183.713 282.201 184.456C282.685 185.182 282.927 186.028 282.927 186.996V196.428H280.128V193.888L280.724 193.966C280.396 194.536 279.973 195.028 279.455 195.443C278.954 195.858 278.375 196.177 277.719 196.402C277.079 196.626 276.363 196.739 275.568 196.739ZM291.533 196.739C290.099 196.739 288.838 196.385 287.75 195.676C286.679 194.968 285.927 194.018 285.496 192.826L287.75 191.763C288.13 192.558 288.648 193.189 289.305 193.655C289.978 194.122 290.721 194.355 291.533 194.355C292.224 194.355 292.786 194.199 293.218 193.888C293.649 193.577 293.865 193.154 293.865 192.619C293.865 192.273 293.77 191.997 293.58 191.789C293.39 191.565 293.148 191.383 292.855 191.245C292.578 191.107 292.293 191.003 292 190.934L289.797 190.312C288.588 189.967 287.681 189.449 287.076 188.758C286.489 188.049 286.195 187.229 286.195 186.296C286.195 185.449 286.411 184.715 286.843 184.093C287.275 183.454 287.871 182.962 288.631 182.616C289.391 182.271 290.246 182.098 291.196 182.098C292.475 182.098 293.615 182.418 294.617 183.057C295.619 183.679 296.327 184.551 296.742 185.674L294.487 186.736C294.211 186.063 293.77 185.527 293.166 185.13C292.578 184.733 291.913 184.534 291.17 184.534C290.531 184.534 290.022 184.689 289.642 185C289.262 185.294 289.072 185.683 289.072 186.166C289.072 186.495 289.158 186.771 289.331 186.996C289.503 187.203 289.728 187.376 290.004 187.514C290.281 187.635 290.566 187.738 290.859 187.825L293.14 188.499C294.297 188.827 295.187 189.345 295.809 190.053C296.431 190.744 296.742 191.573 296.742 192.541C296.742 193.37 296.517 194.104 296.068 194.743C295.636 195.365 295.031 195.858 294.254 196.22C293.477 196.566 292.57 196.739 291.533 196.739Z" fill="white"/>
<path d="M168.631 229.709C167.706 229.709 166.837 229.549 166.024 229.231C165.21 228.896 164.501 228.425 163.895 227.819C163.305 227.197 162.874 226.472 162.603 225.643L164.517 224.829C164.852 225.706 165.394 226.392 166.143 226.886C166.909 227.365 167.738 227.604 168.631 227.604C169.364 227.604 170.01 227.445 170.568 227.126C171.142 226.791 171.589 226.336 171.908 225.762C172.227 225.172 172.386 224.518 172.386 223.801C172.386 223.051 172.219 222.39 171.884 221.816C171.565 221.242 171.126 220.795 170.568 220.476C170.01 220.141 169.372 219.974 168.655 219.974C167.921 219.974 167.251 220.141 166.646 220.476C166.04 220.811 165.601 221.234 165.33 221.744L163.44 221.337L164.804 211.602H174.037V213.635H165.689L166.598 212.726L165.545 220.285L164.732 219.806C165.258 219.137 165.872 218.658 166.574 218.371C167.291 218.068 168.065 217.917 168.894 217.917C170.058 217.917 171.079 218.18 171.956 218.706C172.833 219.232 173.518 219.934 174.013 220.811C174.507 221.688 174.754 222.685 174.754 223.801C174.754 224.917 174.483 225.922 173.941 226.815C173.415 227.708 172.689 228.417 171.764 228.943C170.855 229.454 169.811 229.709 168.631 229.709ZM183.37 229.709C182.445 229.709 181.576 229.549 180.763 229.231C179.95 228.896 179.24 228.425 178.634 227.819C178.044 227.197 177.614 226.472 177.342 225.643L179.256 224.829C179.591 225.706 180.133 226.392 180.883 226.886C181.648 227.365 182.477 227.604 183.37 227.604C184.104 227.604 184.749 227.445 185.308 227.126C185.882 226.791 186.328 226.336 186.647 225.762C186.966 225.172 187.125 224.518 187.125 223.801C187.125 223.051 186.958 222.39 186.623 221.816C186.304 221.242 185.866 220.795 185.308 220.476C184.749 220.141 184.112 219.974 183.394 219.974C182.661 219.974 181.991 220.141 181.385 220.476C180.779 220.811 180.34 221.234 180.069 221.744L178.18 221.337L179.543 211.602H188.776V213.635H180.428L181.337 212.726L180.285 220.285L179.471 219.806C179.997 219.137 180.611 218.658 181.313 218.371C182.031 218.068 182.804 217.917 183.633 217.917C184.797 217.917 185.818 218.18 186.695 218.706C187.572 219.232 188.258 219.934 188.752 220.811C189.246 221.688 189.493 222.685 189.493 223.801C189.493 224.917 189.222 225.922 188.68 226.815C188.154 227.708 187.428 228.417 186.504 228.943C185.595 229.454 184.55 229.709 183.37 229.709ZM195.191 229.422V213.635H191.819V211.602H197.559V229.422H195.191ZM204.324 229.422V213.635H200.952V211.602H206.692V229.422H204.324ZM212.262 229.422L218.409 221.409L218.839 221.457C218.6 221.776 218.337 222.031 218.05 222.222C217.763 222.398 217.444 222.525 217.093 222.605C216.758 222.685 216.392 222.725 215.993 222.725C214.941 222.725 213.992 222.485 213.147 222.007C212.317 221.513 211.656 220.843 211.161 219.998C210.683 219.137 210.444 218.156 210.444 217.056C210.444 215.955 210.699 214.975 211.209 214.114C211.72 213.253 212.421 212.575 213.314 212.08C214.207 211.57 215.212 211.315 216.328 211.315C217.476 211.315 218.489 211.57 219.366 212.08C220.259 212.575 220.96 213.268 221.471 214.161C221.981 215.038 222.236 216.051 222.236 217.199C222.236 217.821 222.164 218.435 222.021 219.041C221.877 219.647 221.646 220.261 221.327 220.883C221.024 221.505 220.617 222.15 220.107 222.82L215.084 229.422H212.262ZM216.328 220.667C217.014 220.667 217.62 220.516 218.146 220.213C218.688 219.894 219.111 219.464 219.414 218.921C219.716 218.363 219.868 217.741 219.868 217.056C219.868 216.338 219.709 215.708 219.39 215.166C219.087 214.624 218.672 214.193 218.146 213.874C217.62 213.555 217.014 213.396 216.328 213.396C215.658 213.396 215.06 213.555 214.534 213.874C214.008 214.193 213.585 214.624 213.266 215.166C212.963 215.708 212.812 216.338 212.812 217.056C212.812 217.741 212.963 218.363 213.266 218.921C213.569 219.464 213.984 219.894 214.51 220.213C215.052 220.516 215.658 220.667 216.328 220.667ZM226.58 229.422L232.728 221.409L233.158 221.457C232.919 221.776 232.656 222.031 232.369 222.222C232.082 222.398 231.763 222.525 231.412 222.605C231.077 222.685 230.711 222.725 230.312 222.725C229.259 222.725 228.311 222.485 227.466 222.007C226.636 221.513 225.975 220.843 225.48 219.998C225.002 219.137 224.763 218.156 224.763 217.056C224.763 215.955 225.018 214.975 225.528 214.114C226.038 213.253 226.74 212.575 227.633 212.08C228.526 211.57 229.531 211.315 230.647 211.315C231.795 211.315 232.807 211.57 233.684 212.08C234.577 212.575 235.279 213.268 235.789 214.161C236.3 215.038 236.555 216.051 236.555 217.199C236.555 217.821 236.483 218.435 236.34 219.041C236.196 219.647 235.965 220.261 235.646 220.883C235.343 221.505 234.936 222.15 234.426 222.82L229.403 229.422H226.58ZM230.647 220.667C231.332 220.667 231.938 220.516 232.465 220.213C233.007 219.894 233.429 219.464 233.732 218.921C234.035 218.363 234.187 217.741 234.187 217.056C234.187 216.338 234.027 215.708 233.708 215.166C233.405 214.624 232.991 214.193 232.465 213.874C231.938 213.555 231.332 213.396 230.647 213.396C229.977 213.396 229.379 213.555 228.853 213.874C228.327 214.193 227.904 214.624 227.585 215.166C227.282 215.708 227.131 216.338 227.131 217.056C227.131 217.741 227.282 218.363 227.585 218.921C227.888 219.464 228.303 219.894 228.829 220.213C229.371 220.516 229.977 220.667 230.647 220.667ZM245.372 229.709C244.176 229.709 243.116 229.47 242.191 228.991C241.282 228.513 240.564 227.867 240.038 227.054C239.528 226.225 239.273 225.3 239.273 224.279C239.273 223.131 239.592 222.127 240.23 221.265C240.867 220.404 241.744 219.79 242.861 219.424L242.813 220.022C241.968 219.687 241.306 219.153 240.828 218.419C240.365 217.67 240.134 216.864 240.134 216.003C240.134 215.094 240.357 214.289 240.804 213.587C241.266 212.886 241.888 212.336 242.669 211.937C243.467 211.522 244.368 211.315 245.372 211.315C246.377 211.315 247.27 211.514 248.051 211.913C248.833 212.312 249.446 212.87 249.893 213.587C250.355 214.289 250.587 215.094 250.587 216.003C250.587 216.912 250.339 217.725 249.845 218.443C249.367 219.161 248.729 219.695 247.932 220.046L247.86 219.424C248.992 219.79 249.877 220.412 250.515 221.289C251.153 222.15 251.472 223.147 251.472 224.279C251.472 225.3 251.208 226.225 250.682 227.054C250.172 227.867 249.454 228.513 248.53 228.991C247.621 229.47 246.568 229.709 245.372 229.709ZM245.372 227.676C246.122 227.676 246.775 227.532 247.334 227.245C247.892 226.958 248.322 226.56 248.625 226.049C248.944 225.523 249.104 224.925 249.104 224.255C249.104 223.57 248.944 222.972 248.625 222.461C248.322 221.935 247.892 221.537 247.334 221.265C246.775 220.978 246.122 220.835 245.372 220.835C244.623 220.835 243.961 220.978 243.387 221.265C242.829 221.537 242.398 221.935 242.095 222.461C241.792 222.972 241.641 223.57 241.641 224.255C241.641 224.925 241.792 225.523 242.095 226.049C242.398 226.56 242.829 226.958 243.387 227.245C243.961 227.532 244.623 227.676 245.372 227.676ZM245.372 218.802C245.914 218.802 246.393 218.682 246.807 218.443C247.238 218.204 247.581 217.885 247.836 217.486C248.091 217.072 248.219 216.593 248.219 216.051C248.219 215.509 248.091 215.038 247.836 214.64C247.581 214.241 247.238 213.93 246.807 213.707C246.393 213.468 245.914 213.348 245.372 213.348C244.814 213.348 244.32 213.468 243.889 213.707C243.459 213.93 243.116 214.241 242.861 214.64C242.606 215.038 242.478 215.509 242.478 216.051C242.478 216.593 242.606 217.072 242.861 217.486C243.116 217.885 243.459 218.204 243.889 218.443C244.32 218.682 244.814 218.802 245.372 218.802ZM254.722 229.422L262.544 213.635H253.813V211.602H265.008V213.635L257.258 229.422H254.722ZM271.993 229.709C270.845 229.709 269.824 229.454 268.931 228.943C268.054 228.433 267.361 227.74 266.851 226.863C266.34 225.97 266.085 224.957 266.085 223.825C266.085 223.203 266.157 222.589 266.3 221.983C266.444 221.377 266.675 220.763 266.994 220.141C267.313 219.519 267.72 218.874 268.214 218.204L273.237 211.602H276.059L269.912 219.591L269.482 219.543C269.721 219.224 269.984 218.977 270.271 218.802C270.574 218.626 270.893 218.499 271.228 218.419C271.579 218.339 271.945 218.299 272.328 218.299C273.38 218.299 274.321 218.547 275.15 219.041C275.996 219.519 276.657 220.181 277.136 221.026C277.63 221.871 277.877 222.844 277.877 223.944C277.877 225.045 277.622 226.033 277.112 226.91C276.602 227.771 275.9 228.457 275.007 228.967C274.13 229.462 273.125 229.709 271.993 229.709ZM271.993 227.604C272.663 227.604 273.261 227.453 273.787 227.15C274.313 226.831 274.728 226.392 275.031 225.834C275.35 225.276 275.509 224.654 275.509 223.968C275.509 223.251 275.358 222.629 275.055 222.103C274.752 221.56 274.337 221.13 273.811 220.811C273.285 220.492 272.679 220.333 271.993 220.333C271.323 220.333 270.717 220.492 270.175 220.811C269.633 221.13 269.211 221.56 268.908 222.103C268.605 222.629 268.453 223.251 268.453 223.968C268.453 224.654 268.605 225.276 268.908 225.834C269.226 226.392 269.649 226.831 270.175 227.15C270.717 227.453 271.323 227.604 271.993 227.604ZM286.288 229.709C285.363 229.709 284.494 229.549 283.681 229.231C282.868 228.896 282.158 228.425 281.552 227.819C280.962 227.197 280.531 226.472 280.26 225.643L282.174 224.829C282.509 225.706 283.051 226.392 283.8 226.886C284.566 227.365 285.395 227.604 286.288 227.604C287.022 227.604 287.667 227.445 288.225 227.126C288.8 226.791 289.246 226.336 289.565 225.762C289.884 225.172 290.043 224.518 290.043 223.801C290.043 223.051 289.876 222.39 289.541 221.816C289.222 221.242 288.784 220.795 288.225 220.476C287.667 220.141 287.03 219.974 286.312 219.974C285.578 219.974 284.909 220.141 284.303 220.476C283.697 220.811 283.258 221.234 282.987 221.744L281.098 221.337L282.461 211.602H291.694V213.635H283.346L284.255 212.726L283.202 220.285L282.389 219.806C282.915 219.137 283.529 218.658 284.231 218.371C284.949 218.068 285.722 217.917 286.551 217.917C287.715 217.917 288.736 218.18 289.613 218.706C290.49 219.232 291.176 219.934 291.67 220.811C292.164 221.688 292.411 222.685 292.411 223.801C292.411 224.917 292.14 225.922 291.598 226.815C291.072 227.708 290.346 228.417 289.421 228.943C288.513 229.454 287.468 229.709 286.288 229.709ZM303.634 229.422V225.308H294.88V223.37L303.587 211.602H305.835V223.37H308.155V225.308H305.835V229.422H303.634ZM296.65 224.207L296.315 223.37H303.634V213.563L304.328 213.755L296.65 224.207ZM316.137 229.709C315.196 229.709 314.319 229.541 313.506 229.207C312.693 228.872 311.991 228.401 311.401 227.795C310.811 227.173 310.372 226.44 310.085 225.595L312.071 224.782C312.406 225.675 312.932 226.368 313.649 226.863C314.367 227.357 315.196 227.604 316.137 227.604C316.87 227.604 317.524 227.461 318.098 227.173C318.672 226.886 319.119 226.472 319.438 225.93C319.773 225.388 319.94 224.734 319.94 223.968C319.94 223.187 319.773 222.533 319.438 222.007C319.119 221.465 318.672 221.05 318.098 220.763C317.524 220.476 316.862 220.333 316.113 220.333C315.874 220.333 315.611 220.349 315.324 220.38C315.053 220.412 314.821 220.46 314.63 220.524L314.128 219.448L318.888 213.635H310.994V211.602H321.543V213.563L316.998 219.161L316.855 218.539C317.923 218.571 318.864 218.818 319.677 219.28C320.49 219.743 321.128 220.372 321.591 221.17C322.053 221.951 322.284 222.868 322.284 223.92C322.284 225.005 322.021 225.985 321.495 226.863C320.969 227.74 320.243 228.433 319.318 228.943C318.393 229.454 317.333 229.709 316.137 229.709ZM324.995 229.422V227.795L329.923 222.461C330.896 221.425 331.669 220.572 332.243 219.902C332.833 219.232 333.264 218.634 333.535 218.108C333.806 217.582 333.941 217.024 333.941 216.434C333.941 215.461 333.654 214.712 333.08 214.185C332.506 213.659 331.749 213.396 330.808 213.396C329.851 213.396 329.038 213.675 328.368 214.233C327.698 214.775 327.236 215.549 326.981 216.553L324.852 216.003C325.059 215.046 325.442 214.217 326 213.516C326.558 212.814 327.252 212.272 328.081 211.889C328.91 211.506 329.819 211.315 330.808 211.315C331.892 211.315 332.841 211.53 333.654 211.961C334.483 212.375 335.129 212.957 335.592 213.707C336.07 214.456 336.309 215.325 336.309 216.314C336.309 216.968 336.174 217.606 335.903 218.228C335.632 218.85 335.233 219.511 334.707 220.213C334.18 220.899 333.495 221.696 332.65 222.605L328.248 227.389H336.692V229.422H324.995Z" fill="#888888"/>
<path d="M61.792 276.067H530.209C536.264 276.067 541.172 280.976 541.172 287.03V358.787C541.172 364.842 536.264 369.75 530.209 369.75H61.792C55.7373 369.75 50.8291 364.842 50.8291 358.787V287.03C50.8291 280.976 55.7373 276.067 61.792 276.067Z" fill="#393939" stroke="#434343" stroke-width="1.99327"/>
<rect x="414.6" y="306.963" width="96.9192" height="31.9731" rx="9.35968" fill="#828C3E" fill-opacity="0.52"/>
<path d="M432.55 331.174C431.576 331.174 430.709 330.943 429.948 330.481C429.187 330.019 428.588 329.389 428.151 328.591C427.714 327.779 427.496 326.875 427.496 325.876C427.496 324.865 427.708 323.967 428.132 323.181C428.569 322.394 429.155 321.777 429.892 321.327C430.64 320.866 431.477 320.635 432.4 320.635C433.149 320.635 433.81 320.772 434.384 321.047C434.971 321.309 435.464 321.671 435.863 322.132C436.275 322.582 436.587 323.1 436.799 323.686C437.024 324.26 437.136 324.859 437.136 325.483C437.136 325.62 437.124 325.776 437.099 325.951C437.086 326.113 437.067 326.269 437.042 326.419H428.768V324.922H436.032L435.208 325.595C435.32 324.947 435.258 324.366 435.021 323.855C434.784 323.343 434.434 322.937 433.972 322.638C433.511 322.338 432.987 322.189 432.4 322.189C431.813 322.189 431.277 322.338 430.79 322.638C430.303 322.937 429.923 323.368 429.648 323.929C429.386 324.479 429.28 325.134 429.33 325.895C429.28 326.631 429.392 327.28 429.667 327.842C429.954 328.391 430.353 328.821 430.865 329.133C431.389 329.433 431.957 329.583 432.568 329.583C433.242 329.583 433.81 329.427 434.272 329.115C434.734 328.803 435.108 328.403 435.395 327.917L436.855 328.665C436.656 329.127 436.344 329.552 435.919 329.938C435.507 330.313 435.014 330.612 434.44 330.837C433.879 331.062 433.249 331.174 432.55 331.174ZM439.406 330.949V320.859H441.109V322.825L440.829 322.657C441.078 322.02 441.477 321.527 442.027 321.178C442.588 320.816 443.243 320.635 443.992 320.635C444.716 320.635 445.359 320.797 445.92 321.122C446.494 321.446 446.944 321.895 447.268 322.469C447.605 323.043 447.773 323.692 447.773 324.416V330.949H446.014V324.978C446.014 324.416 445.914 323.942 445.714 323.555C445.515 323.168 445.228 322.869 444.853 322.657C444.491 322.432 444.073 322.32 443.599 322.32C443.125 322.32 442.7 322.432 442.326 322.657C441.964 322.869 441.677 323.174 441.465 323.574C441.253 323.961 441.147 324.429 441.147 324.978V330.949H439.406ZM452.89 330.949L448.94 320.859H450.887L454.05 329.396H453.376L456.559 320.859H458.505L454.537 330.949H452.89ZM460.063 330.949V320.859H461.804V330.949H460.063ZM460.063 319.25V317.003H461.804V319.25H460.063ZM467.463 331.174C466.801 331.174 466.215 331.055 465.703 330.818C465.204 330.569 464.811 330.232 464.524 329.807C464.237 329.371 464.093 328.871 464.093 328.31C464.093 327.773 464.206 327.293 464.43 326.868C464.667 326.432 465.029 326.063 465.516 325.764C466.015 325.464 466.639 325.252 467.388 325.127L471.132 324.51V325.97L467.781 326.531C467.132 326.644 466.658 326.85 466.358 327.149C466.071 327.449 465.928 327.817 465.928 328.254C465.928 328.665 466.09 329.009 466.415 329.283C466.752 329.558 467.17 329.695 467.669 329.695C468.305 329.695 468.854 329.564 469.316 329.302C469.79 329.027 470.158 328.659 470.421 328.197C470.695 327.736 470.832 327.224 470.832 326.662V324.098C470.832 323.549 470.626 323.106 470.215 322.769C469.815 322.419 469.285 322.245 468.623 322.245C468.049 322.245 467.538 322.394 467.088 322.694C466.652 322.981 466.327 323.368 466.115 323.855L464.599 323.068C464.786 322.607 465.085 322.195 465.497 321.833C465.909 321.458 466.39 321.165 466.939 320.953C467.488 320.741 468.062 320.635 468.661 320.635C469.435 320.635 470.115 320.785 470.701 321.084C471.288 321.371 471.743 321.777 472.068 322.301C472.405 322.813 472.573 323.412 472.573 324.098V330.949H470.87V329.04L471.188 329.152C470.976 329.552 470.689 329.901 470.327 330.2C469.965 330.5 469.541 330.737 469.054 330.912C468.567 331.086 468.037 331.174 467.463 331.174ZM479.859 331.174C478.91 331.174 478.055 330.943 477.294 330.481C476.545 330.019 475.953 329.389 475.516 328.591C475.079 327.792 474.861 326.9 474.861 325.914C474.861 324.903 475.079 324.004 475.516 323.218C475.953 322.419 476.545 321.789 477.294 321.327C478.055 320.866 478.91 320.635 479.859 320.635C480.695 320.635 481.437 320.816 482.086 321.178C482.735 321.527 483.247 322.001 483.621 322.6L483.341 323.031V316.779H485.1V330.949H483.397V328.796L483.621 329.096C483.272 329.757 482.76 330.269 482.086 330.631C481.425 330.993 480.682 331.174 479.859 331.174ZM480.008 329.489C480.645 329.489 481.213 329.333 481.712 329.021C482.211 328.709 482.604 328.285 482.891 327.748C483.191 327.199 483.341 326.588 483.341 325.914C483.341 325.227 483.191 324.616 482.891 324.079C482.604 323.53 482.211 323.1 481.712 322.788C481.213 322.476 480.645 322.32 480.008 322.32C479.385 322.32 478.817 322.482 478.305 322.806C477.806 323.118 477.413 323.543 477.126 324.079C476.839 324.603 476.695 325.215 476.695 325.914C476.695 326.588 476.839 327.199 477.126 327.748C477.413 328.285 477.806 328.709 478.305 329.021C478.804 329.333 479.372 329.489 480.008 329.489ZM492.587 331.174C491.613 331.174 490.734 330.949 489.947 330.5C489.161 330.038 488.537 329.408 488.076 328.609C487.614 327.811 487.383 326.906 487.383 325.895C487.383 324.884 487.608 323.986 488.057 323.199C488.519 322.413 489.143 321.789 489.929 321.327C490.715 320.866 491.601 320.635 492.587 320.635C493.56 320.635 494.44 320.866 495.226 321.327C496.013 321.777 496.63 322.394 497.08 323.181C497.541 323.967 497.772 324.872 497.772 325.895C497.772 326.918 497.535 327.829 497.061 328.628C496.587 329.414 495.956 330.038 495.17 330.5C494.396 330.949 493.535 331.174 492.587 331.174ZM492.587 329.489C493.211 329.489 493.772 329.333 494.272 329.021C494.783 328.709 495.183 328.279 495.47 327.729C495.769 327.18 495.919 326.569 495.919 325.895C495.919 325.209 495.769 324.603 495.47 324.079C495.183 323.543 494.783 323.118 494.272 322.806C493.772 322.482 493.211 322.32 492.587 322.32C491.95 322.32 491.376 322.482 490.865 322.806C490.366 323.118 489.966 323.543 489.667 324.079C489.367 324.603 489.217 325.209 489.217 325.895C489.217 326.569 489.367 327.18 489.667 327.729C489.966 328.279 490.366 328.709 490.865 329.021C491.376 329.333 491.95 329.489 492.587 329.489Z" fill="#E8FF43"/>
<circle cx="103.65" cy="322.909" r="33.8855" fill="#545454"/>
<path d="M113.963 336.17V333.223C113.963 331.66 113.342 330.161 112.237 329.056C111.132 327.951 109.633 327.33 108.07 327.33H99.23C97.6671 327.33 96.1681 327.951 95.063 329.056C93.9578 330.161 93.3369 331.66 93.3369 333.223V336.17" stroke="#979797" stroke-width="2.94648" stroke-linecap="round" stroke-linejoin="round"/>
<path d="M103.649 321.435C106.904 321.435 109.542 318.796 109.542 315.542C109.542 312.287 106.904 309.648 103.649 309.648C100.394 309.648 97.7559 312.287 97.7559 315.542C97.7559 318.796 100.394 321.435 103.649 321.435Z" stroke="#979797" stroke-width="2.94648" stroke-linecap="round" stroke-linejoin="round"/>
<path d="M163.45 316.023V296.719H166.301L173.556 306.773H172.131L179.257 296.719H182.107V316.023H179.076V300.32L180.216 300.631L172.934 310.582H172.623L165.497 300.631L166.508 300.32V316.023H163.45ZM190.011 316.334C189.061 316.334 188.223 316.17 187.498 315.842C186.789 315.497 186.237 315.03 185.839 314.443C185.442 313.838 185.243 313.13 185.243 312.318C185.243 311.558 185.407 310.875 185.736 310.271C186.081 309.666 186.608 309.157 187.316 308.742C188.025 308.327 188.914 308.034 189.985 307.861L194.857 307.058V309.364L190.555 310.115C189.778 310.254 189.208 310.504 188.845 310.867C188.482 311.212 188.301 311.662 188.301 312.214C188.301 312.75 188.5 313.19 188.897 313.536C189.312 313.864 189.838 314.028 190.478 314.028C191.272 314.028 191.963 313.855 192.551 313.51C193.155 313.164 193.622 312.707 193.95 312.137C194.278 311.549 194.442 310.901 194.442 310.193V306.591C194.442 305.9 194.183 305.339 193.665 304.907C193.164 304.458 192.49 304.233 191.644 304.233C190.866 304.233 190.184 304.441 189.597 304.855C189.027 305.252 188.603 305.771 188.327 306.41L185.891 305.192C186.15 304.501 186.573 303.896 187.161 303.378C187.748 302.843 188.431 302.428 189.208 302.134C190.003 301.841 190.84 301.694 191.721 301.694C192.827 301.694 193.803 301.901 194.65 302.316C195.513 302.73 196.178 303.309 196.645 304.052C197.129 304.777 197.37 305.624 197.37 306.591V316.023H194.572V313.484L195.168 313.562C194.84 314.132 194.416 314.624 193.898 315.039C193.397 315.453 192.818 315.773 192.162 315.998C191.523 316.222 190.806 316.334 190.011 316.334ZM200.794 316.023V302.005H203.593V304.829L203.333 304.415C203.644 303.499 204.145 302.843 204.836 302.445C205.527 302.031 206.357 301.823 207.324 301.823H208.179V304.492H206.961C205.994 304.492 205.208 304.795 204.603 305.399C204.016 305.987 203.722 306.833 203.722 307.939V316.023H200.794ZM210.182 316.023V302.005H213.11V316.023H210.182ZM210.182 300.087V296.719H213.11V300.087H210.182ZM220.732 316.334C219.782 316.334 218.944 316.17 218.218 315.842C217.51 315.497 216.957 315.03 216.56 314.443C216.162 313.838 215.964 313.13 215.964 312.318C215.964 311.558 216.128 310.875 216.456 310.271C216.802 309.666 217.328 309.157 218.037 308.742C218.745 308.327 219.635 308.034 220.706 307.861L225.577 307.058V309.364L221.276 310.115C220.498 310.254 219.928 310.504 219.566 310.867C219.203 311.212 219.021 311.662 219.021 312.214C219.021 312.75 219.22 313.19 219.617 313.536C220.032 313.864 220.559 314.028 221.198 314.028C221.993 314.028 222.684 313.855 223.271 313.51C223.876 313.164 224.342 312.707 224.67 312.137C224.999 311.549 225.163 310.901 225.163 310.193V306.591C225.163 305.9 224.904 305.339 224.385 304.907C223.884 304.458 223.211 304.233 222.364 304.233C221.587 304.233 220.904 304.441 220.317 304.855C219.747 305.252 219.324 305.771 219.047 306.41L216.612 305.192C216.871 304.501 217.294 303.896 217.881 303.378C218.469 302.843 219.151 302.428 219.928 302.134C220.723 301.841 221.561 301.694 222.442 301.694C223.547 301.694 224.524 301.901 225.37 302.316C226.234 302.73 226.899 303.309 227.365 304.052C227.849 304.777 228.091 305.624 228.091 306.591V316.023H225.292V313.484L225.888 313.562C225.56 314.132 225.137 314.624 224.619 315.039C224.118 315.453 223.539 315.773 222.882 315.998C222.243 316.222 221.526 316.334 220.732 316.334ZM236.329 316.023V296.719H249.052V299.439H239.387V304.985H248.534V307.706H239.387V313.303H249.052V316.023H236.329ZM251.607 316.023V296.408H254.535V316.023H251.607ZM257.958 316.023V302.005H260.886V316.023H257.958ZM257.958 300.087V296.719H260.886V300.087H257.958ZM270.969 316.334C269.57 316.334 268.326 316.015 267.238 315.376C266.167 314.719 265.312 313.838 264.673 312.733C264.051 311.627 263.74 310.375 263.74 308.975C263.74 307.593 264.051 306.349 264.673 305.244C265.295 304.138 266.15 303.275 267.238 302.653C268.326 302.013 269.57 301.694 270.969 301.694C271.92 301.694 272.809 301.867 273.638 302.212C274.468 302.54 275.185 302.998 275.789 303.585C276.411 304.173 276.869 304.855 277.163 305.633L274.597 306.825C274.303 306.099 273.828 305.52 273.172 305.088C272.533 304.639 271.799 304.415 270.969 304.415C270.175 304.415 269.458 304.613 268.819 305.011C268.197 305.391 267.704 305.935 267.342 306.643C266.979 307.334 266.798 308.12 266.798 309.001C266.798 309.882 266.979 310.677 267.342 311.385C267.704 312.076 268.197 312.62 268.819 313.018C269.458 313.415 270.175 313.614 270.969 313.614C271.816 313.614 272.55 313.398 273.172 312.966C273.811 312.517 274.286 311.921 274.597 311.178L277.163 312.396C276.886 313.139 276.437 313.812 275.815 314.417C275.21 315.004 274.494 315.471 273.664 315.816C272.835 316.162 271.937 316.334 270.969 316.334ZM286.606 316.334C285.207 316.334 283.963 316.015 282.875 315.376C281.804 314.719 280.966 313.838 280.361 312.733C279.757 311.61 279.454 310.357 279.454 308.975C279.454 307.559 279.757 306.306 280.361 305.218C280.983 304.13 281.812 303.275 282.849 302.653C283.885 302.013 285.06 301.694 286.373 301.694C287.427 301.694 288.368 301.875 289.197 302.238C290.027 302.601 290.726 303.102 291.296 303.741C291.866 304.363 292.298 305.08 292.592 305.892C292.903 306.704 293.058 307.567 293.058 308.483C293.058 308.707 293.05 308.941 293.032 309.183C293.015 309.424 292.981 309.649 292.929 309.856H281.761V307.524H291.27L289.871 308.587C290.044 307.74 289.983 306.989 289.69 306.332C289.413 305.658 288.981 305.132 288.394 304.752C287.824 304.354 287.15 304.156 286.373 304.156C285.596 304.156 284.905 304.354 284.3 304.752C283.695 305.132 283.229 305.684 282.901 306.41C282.572 307.118 282.443 307.982 282.512 309.001C282.426 309.951 282.555 310.78 282.901 311.489C283.263 312.197 283.764 312.75 284.404 313.147C285.06 313.544 285.803 313.743 286.632 313.743C287.479 313.743 288.195 313.553 288.783 313.173C289.387 312.793 289.863 312.301 290.208 311.696L292.592 312.862C292.316 313.519 291.884 314.115 291.296 314.65C290.726 315.168 290.035 315.583 289.223 315.894C288.429 316.188 287.556 316.334 286.606 316.334Z" fill="white"/>
<path d="M168.631 349.305C167.706 349.305 166.837 349.145 166.024 348.826C165.21 348.491 164.501 348.021 163.895 347.415C163.305 346.793 162.874 346.068 162.603 345.238L164.517 344.425C164.852 345.302 165.394 345.988 166.143 346.482C166.909 346.961 167.738 347.2 168.631 347.2C169.364 347.2 170.01 347.04 170.568 346.721C171.142 346.386 171.589 345.932 171.908 345.358C172.227 344.768 172.386 344.114 172.386 343.397C172.386 342.647 172.219 341.985 171.884 341.411C171.565 340.837 171.126 340.391 170.568 340.072C170.01 339.737 169.372 339.569 168.655 339.569C167.921 339.569 167.251 339.737 166.646 340.072C166.04 340.407 165.601 340.829 165.33 341.34L163.44 340.933L164.804 331.198H174.037V333.231H165.689L166.598 332.322L165.545 339.88L164.732 339.402C165.258 338.732 165.872 338.254 166.574 337.967C167.291 337.664 168.065 337.512 168.894 337.512C170.058 337.512 171.079 337.776 171.956 338.302C172.833 338.828 173.518 339.53 174.013 340.407C174.507 341.284 174.754 342.28 174.754 343.397C174.754 344.513 174.483 345.517 173.941 346.41C173.415 347.303 172.689 348.013 171.764 348.539C170.855 349.049 169.811 349.305 168.631 349.305ZM183.37 349.305C182.445 349.305 181.576 349.145 180.763 348.826C179.95 348.491 179.24 348.021 178.634 347.415C178.044 346.793 177.614 346.068 177.342 345.238L179.256 344.425C179.591 345.302 180.133 345.988 180.883 346.482C181.648 346.961 182.477 347.2 183.37 347.2C184.104 347.2 184.749 347.04 185.308 346.721C185.882 346.386 186.328 345.932 186.647 345.358C186.966 344.768 187.125 344.114 187.125 343.397C187.125 342.647 186.958 341.985 186.623 341.411C186.304 340.837 185.866 340.391 185.308 340.072C184.749 339.737 184.112 339.569 183.394 339.569C182.661 339.569 181.991 339.737 181.385 340.072C180.779 340.407 180.34 340.829 180.069 341.34L178.18 340.933L179.543 331.198H188.776V333.231H180.428L181.337 332.322L180.285 339.88L179.471 339.402C179.997 338.732 180.611 338.254 181.313 337.967C182.031 337.664 182.804 337.512 183.633 337.512C184.797 337.512 185.818 337.776 186.695 338.302C187.572 338.828 188.258 339.53 188.752 340.407C189.246 341.284 189.493 342.28 189.493 343.397C189.493 344.513 189.222 345.517 188.68 346.41C188.154 347.303 187.428 348.013 186.504 348.539C185.595 349.049 184.55 349.305 183.37 349.305ZM195.191 349.018V333.231H191.819V331.198H197.559V349.018H195.191ZM204.324 349.018V333.231H200.952V331.198H206.692V349.018H204.324ZM212.262 349.018L218.409 341.005L218.839 341.052C218.6 341.371 218.337 341.627 218.05 341.818C217.763 341.993 217.444 342.121 217.093 342.201C216.758 342.28 216.392 342.32 215.993 342.32C214.941 342.32 213.992 342.081 213.147 341.603C212.317 341.108 211.656 340.439 211.161 339.593C210.683 338.732 210.444 337.752 210.444 336.651C210.444 335.551 210.699 334.57 211.209 333.709C211.72 332.848 212.421 332.17 213.314 331.676C214.207 331.166 215.212 330.911 216.328 330.911C217.476 330.911 218.489 331.166 219.366 331.676C220.259 332.17 220.96 332.864 221.471 333.757C221.981 334.634 222.236 335.647 222.236 336.795C222.236 337.417 222.164 338.031 222.021 338.637C221.877 339.243 221.646 339.857 221.327 340.478C221.024 341.1 220.617 341.746 220.107 342.416L215.084 349.018H212.262ZM216.328 340.263C217.014 340.263 217.62 340.112 218.146 339.809C218.688 339.49 219.111 339.059 219.414 338.517C219.716 337.959 219.868 337.337 219.868 336.651C219.868 335.934 219.709 335.304 219.39 334.762C219.087 334.22 218.672 333.789 218.146 333.47C217.62 333.151 217.014 332.992 216.328 332.992C215.658 332.992 215.06 333.151 214.534 333.47C214.008 333.789 213.585 334.22 213.266 334.762C212.963 335.304 212.812 335.934 212.812 336.651C212.812 337.337 212.963 337.959 213.266 338.517C213.569 339.059 213.984 339.49 214.51 339.809C215.052 340.112 215.658 340.263 216.328 340.263ZM226.58 349.018L232.728 341.005L233.158 341.052C232.919 341.371 232.656 341.627 232.369 341.818C232.082 341.993 231.763 342.121 231.412 342.201C231.077 342.28 230.711 342.32 230.312 342.32C229.259 342.32 228.311 342.081 227.466 341.603C226.636 341.108 225.975 340.439 225.48 339.593C225.002 338.732 224.763 337.752 224.763 336.651C224.763 335.551 225.018 334.57 225.528 333.709C226.038 332.848 226.74 332.17 227.633 331.676C228.526 331.166 229.531 330.911 230.647 330.911C231.795 330.911 232.807 331.166 233.684 331.676C234.577 332.17 235.279 332.864 235.789 333.757C236.3 334.634 236.555 335.647 236.555 336.795C236.555 337.417 236.483 338.031 236.34 338.637C236.196 339.243 235.965 339.857 235.646 340.478C235.343 341.1 234.936 341.746 234.426 342.416L229.403 349.018H226.58ZM230.647 340.263C231.332 340.263 231.938 340.112 232.465 339.809C233.007 339.49 233.429 339.059 233.732 338.517C234.035 337.959 234.187 337.337 234.187 336.651C234.187 335.934 234.027 335.304 233.708 334.762C233.405 334.22 232.991 333.789 232.465 333.47C231.938 333.151 231.332 332.992 230.647 332.992C229.977 332.992 229.379 333.151 228.853 333.47C228.327 333.789 227.904 334.22 227.585 334.762C227.282 335.304 227.131 335.934 227.131 336.651C227.131 337.337 227.282 337.959 227.585 338.517C227.888 339.059 228.303 339.49 228.829 339.809C229.371 340.112 229.977 340.263 230.647 340.263ZM245.372 349.305C244.176 349.305 243.116 349.065 242.191 348.587C241.282 348.109 240.564 347.463 240.038 346.65C239.528 345.82 239.273 344.896 239.273 343.875C239.273 342.727 239.592 341.722 240.23 340.861C240.867 340 241.744 339.386 242.861 339.019L242.813 339.617C241.968 339.282 241.306 338.748 240.828 338.015C240.365 337.265 240.134 336.46 240.134 335.599C240.134 334.69 240.357 333.885 240.804 333.183C241.266 332.481 241.888 331.931 242.669 331.533C243.467 331.118 244.368 330.911 245.372 330.911C246.377 330.911 247.27 331.11 248.051 331.509C248.833 331.907 249.446 332.465 249.893 333.183C250.355 333.885 250.587 334.69 250.587 335.599C250.587 336.508 250.339 337.321 249.845 338.039C249.367 338.756 248.729 339.29 247.932 339.641L247.86 339.019C248.992 339.386 249.877 340.008 250.515 340.885C251.153 341.746 251.472 342.743 251.472 343.875C251.472 344.896 251.208 345.82 250.682 346.65C250.172 347.463 249.454 348.109 248.53 348.587C247.621 349.065 246.568 349.305 245.372 349.305ZM245.372 347.271C246.122 347.271 246.775 347.128 247.334 346.841C247.892 346.554 248.322 346.155 248.625 345.645C248.944 345.119 249.104 344.521 249.104 343.851C249.104 343.165 248.944 342.567 248.625 342.057C248.322 341.531 247.892 341.132 247.334 340.861C246.775 340.574 246.122 340.431 245.372 340.431C244.623 340.431 243.961 340.574 243.387 340.861C242.829 341.132 242.398 341.531 242.095 342.057C241.792 342.567 241.641 343.165 241.641 343.851C241.641 344.521 241.792 345.119 242.095 345.645C242.398 346.155 242.829 346.554 243.387 346.841C243.961 347.128 244.623 347.271 245.372 347.271ZM245.372 338.397C245.914 338.397 246.393 338.278 246.807 338.039C247.238 337.799 247.581 337.481 247.836 337.082C248.091 336.667 248.219 336.189 248.219 335.647C248.219 335.105 248.091 334.634 247.836 334.236C247.581 333.837 247.238 333.526 246.807 333.303C246.393 333.063 245.914 332.944 245.372 332.944C244.814 332.944 244.32 333.063 243.889 333.303C243.459 333.526 243.116 333.837 242.861 334.236C242.606 334.634 242.478 335.105 242.478 335.647C242.478 336.189 242.606 336.667 242.861 337.082C243.116 337.481 243.459 337.799 243.889 338.039C244.32 338.278 244.814 338.397 245.372 338.397ZM254.722 349.018L262.544 333.231H253.813V331.198H265.008V333.231L257.258 349.018H254.722ZM271.993 349.305C270.845 349.305 269.824 349.049 268.931 348.539C268.054 348.029 267.361 347.335 266.851 346.458C266.34 345.565 266.085 344.553 266.085 343.42C266.085 342.799 266.157 342.185 266.3 341.579C266.444 340.973 266.675 340.359 266.994 339.737C267.313 339.115 267.72 338.469 268.214 337.799L273.237 331.198H276.059L269.912 339.187L269.482 339.139C269.721 338.82 269.984 338.573 270.271 338.397C270.574 338.222 270.893 338.094 271.228 338.015C271.579 337.935 271.945 337.895 272.328 337.895C273.38 337.895 274.321 338.142 275.15 338.637C275.996 339.115 276.657 339.777 277.136 340.622C277.63 341.467 277.877 342.44 277.877 343.54C277.877 344.64 277.622 345.629 277.112 346.506C276.602 347.367 275.9 348.053 275.007 348.563C274.13 349.057 273.125 349.305 271.993 349.305ZM271.993 347.2C272.663 347.2 273.261 347.048 273.787 346.745C274.313 346.426 274.728 345.988 275.031 345.43C275.35 344.872 275.509 344.25 275.509 343.564C275.509 342.846 275.358 342.225 275.055 341.698C274.752 341.156 274.337 340.726 273.811 340.407C273.285 340.088 272.679 339.928 271.993 339.928C271.323 339.928 270.717 340.088 270.175 340.407C269.633 340.726 269.211 341.156 268.908 341.698C268.605 342.225 268.453 342.846 268.453 343.564C268.453 344.25 268.605 344.872 268.908 345.43C269.226 345.988 269.649 346.426 270.175 346.745C270.717 347.048 271.323 347.2 271.993 347.2ZM286.288 349.305C285.363 349.305 284.494 349.145 283.681 348.826C282.868 348.491 282.158 348.021 281.552 347.415C280.962 346.793 280.531 346.068 280.26 345.238L282.174 344.425C282.509 345.302 283.051 345.988 283.8 346.482C284.566 346.961 285.395 347.2 286.288 347.2C287.022 347.2 287.667 347.04 288.225 346.721C288.8 346.386 289.246 345.932 289.565 345.358C289.884 344.768 290.043 344.114 290.043 343.397C290.043 342.647 289.876 341.985 289.541 341.411C289.222 340.837 288.784 340.391 288.225 340.072C287.667 339.737 287.03 339.569 286.312 339.569C285.578 339.569 284.909 339.737 284.303 340.072C283.697 340.407 283.258 340.829 282.987 341.34L281.098 340.933L282.461 331.198H291.694V333.231H283.346L284.255 332.322L283.202 339.88L282.389 339.402C282.915 338.732 283.529 338.254 284.231 337.967C284.949 337.664 285.722 337.512 286.551 337.512C287.715 337.512 288.736 337.776 289.613 338.302C290.49 338.828 291.176 339.53 291.67 340.407C292.164 341.284 292.411 342.28 292.411 343.397C292.411 344.513 292.14 345.517 291.598 346.41C291.072 347.303 290.346 348.013 289.421 348.539C288.513 349.049 287.468 349.305 286.288 349.305ZM303.634 349.018V344.903H294.88V342.966L303.587 331.198H305.835V342.966H308.155V344.903H305.835V349.018H303.634ZM296.65 343.803L296.315 342.966H303.634V333.159L304.328 333.351L296.65 343.803ZM316.137 349.305C315.196 349.305 314.319 349.137 313.506 348.802C312.693 348.467 311.991 347.997 311.401 347.391C310.811 346.769 310.372 346.036 310.085 345.191L312.071 344.377C312.406 345.27 312.932 345.964 313.649 346.458C314.367 346.953 315.196 347.2 316.137 347.2C316.87 347.2 317.524 347.056 318.098 346.769C318.672 346.482 319.119 346.068 319.438 345.525C319.773 344.983 319.94 344.329 319.94 343.564C319.94 342.783 319.773 342.129 319.438 341.603C319.119 341.06 318.672 340.646 318.098 340.359C317.524 340.072 316.862 339.928 316.113 339.928C315.874 339.928 315.611 339.944 315.324 339.976C315.053 340.008 314.821 340.056 314.63 340.12L314.128 339.043L318.888 333.231H310.994V331.198H321.543V333.159L316.998 338.756L316.855 338.134C317.923 338.166 318.864 338.413 319.677 338.876C320.49 339.338 321.128 339.968 321.591 340.765C322.053 341.547 322.284 342.464 322.284 343.516C322.284 344.601 322.021 345.581 321.495 346.458C320.969 347.335 320.243 348.029 319.318 348.539C318.393 349.049 317.333 349.305 316.137 349.305ZM324.995 349.018V347.391L329.923 342.057C330.896 341.021 331.669 340.167 332.243 339.498C332.833 338.828 333.264 338.23 333.535 337.704C333.806 337.178 333.941 336.619 333.941 336.029C333.941 335.057 333.654 334.307 333.08 333.781C332.506 333.255 331.749 332.992 330.808 332.992C329.851 332.992 329.038 333.271 328.368 333.829C327.698 334.371 327.236 335.144 326.981 336.149L324.852 335.599C325.059 334.642 325.442 333.813 326 333.111C326.558 332.41 327.252 331.868 328.081 331.485C328.91 331.102 329.819 330.911 330.808 330.911C331.892 330.911 332.841 331.126 333.654 331.557C334.483 331.971 335.129 332.553 335.592 333.303C336.07 334.052 336.309 334.921 336.309 335.91C336.309 336.564 336.174 337.201 335.903 337.823C335.632 338.445 335.233 339.107 334.707 339.809C334.18 340.494 333.495 341.292 332.65 342.201L328.248 346.984H336.692V349.018H324.995Z" fill="#888888"/>
<path d="M61.792 395.663H530.209C536.264 395.663 541.172 400.571 541.172 406.626V478.383C541.172 484.437 536.264 489.346 530.209 489.346H61.792C55.7373 489.346 50.8291 484.437 50.8291 478.383V406.626C50.8291 400.571 55.7373 395.663 61.792 395.663Z" fill="#393939" stroke="#434343" stroke-width="1.99327"/>
<rect x="414.6" y="426.559" width="96.9192" height="31.9731" rx="9.35968" fill="#828C3E" fill-opacity="0.52"/>
<path d="M432.55 450.77C431.576 450.77 430.709 450.539 429.948 450.077C429.187 449.615 428.588 448.985 428.151 448.186C427.714 447.375 427.496 446.47 427.496 445.472C427.496 444.461 427.708 443.563 428.132 442.776C428.569 441.99 429.155 441.372 429.892 440.923C430.64 440.461 431.477 440.231 432.4 440.231C433.149 440.231 433.81 440.368 434.384 440.642C434.971 440.904 435.464 441.266 435.863 441.728C436.275 442.177 436.587 442.695 436.799 443.282C437.024 443.856 437.136 444.455 437.136 445.079C437.136 445.216 437.124 445.372 437.099 445.547C437.086 445.709 437.067 445.865 437.042 446.015H428.768V444.517H436.032L435.208 445.191C435.32 444.542 435.258 443.962 435.021 443.45C434.784 442.939 434.434 442.533 433.972 442.234C433.511 441.934 432.987 441.784 432.4 441.784C431.813 441.784 431.277 441.934 430.79 442.234C430.303 442.533 429.923 442.964 429.648 443.525C429.386 444.074 429.28 444.729 429.33 445.491C429.28 446.227 429.392 446.876 429.667 447.438C429.954 447.987 430.353 448.417 430.865 448.729C431.389 449.029 431.957 449.178 432.568 449.178C433.242 449.178 433.81 449.022 434.272 448.71C434.734 448.398 435.108 447.999 435.395 447.512L436.855 448.261C436.656 448.723 436.344 449.147 435.919 449.534C435.507 449.908 435.014 450.208 434.44 450.433C433.879 450.657 433.249 450.77 432.55 450.77ZM439.406 450.545V440.455H441.109V442.421L440.829 442.252C441.078 441.616 441.477 441.123 442.027 440.773C442.588 440.412 443.243 440.231 443.992 440.231C444.716 440.231 445.359 440.393 445.92 440.717C446.494 441.042 446.944 441.491 447.268 442.065C447.605 442.639 447.773 443.288 447.773 444.012V450.545H446.014V444.573C446.014 444.012 445.914 443.538 445.714 443.151C445.515 442.764 445.228 442.464 444.853 442.252C444.491 442.028 444.073 441.915 443.599 441.915C443.125 441.915 442.7 442.028 442.326 442.252C441.964 442.464 441.677 442.77 441.465 443.169C441.253 443.556 441.147 444.024 441.147 444.573V450.545H439.406ZM452.89 450.545L448.94 440.455H450.887L454.05 448.991H453.376L456.559 440.455H458.505L454.537 450.545H452.89ZM460.063 450.545V440.455H461.804V450.545H460.063ZM460.063 438.845V436.599H461.804V438.845H460.063ZM467.463 450.77C466.801 450.77 466.215 450.651 465.703 450.414C465.204 450.164 464.811 449.827 464.524 449.403C464.237 448.966 464.093 448.467 464.093 447.905C464.093 447.369 464.206 446.888 464.43 446.464C464.667 446.027 465.029 445.659 465.516 445.36C466.015 445.06 466.639 444.848 467.388 444.723L471.132 444.105V445.566L467.781 446.127C467.132 446.239 466.658 446.445 466.358 446.745C466.071 447.044 465.928 447.413 465.928 447.849C465.928 448.261 466.09 448.604 466.415 448.879C466.752 449.153 467.17 449.291 467.669 449.291C468.305 449.291 468.854 449.16 469.316 448.898C469.79 448.623 470.158 448.255 470.421 447.793C470.695 447.331 470.832 446.82 470.832 446.258V443.694C470.832 443.145 470.626 442.702 470.215 442.365C469.815 442.015 469.285 441.84 468.623 441.84C468.049 441.84 467.538 441.99 467.088 442.29C466.652 442.577 466.327 442.964 466.115 443.45L464.599 442.664C464.786 442.202 465.085 441.79 465.497 441.429C465.909 441.054 466.39 440.761 466.939 440.549C467.488 440.337 468.062 440.231 468.661 440.231C469.435 440.231 470.115 440.38 470.701 440.68C471.288 440.967 471.743 441.372 472.068 441.897C472.405 442.408 472.573 443.007 472.573 443.694V450.545H470.87V448.636L471.188 448.748C470.976 449.147 470.689 449.497 470.327 449.796C469.965 450.096 469.541 450.333 469.054 450.507C468.567 450.682 468.037 450.77 467.463 450.77ZM479.859 450.77C478.91 450.77 478.055 450.539 477.294 450.077C476.545 449.615 475.953 448.985 475.516 448.186C475.079 447.388 474.861 446.495 474.861 445.509C474.861 444.499 475.079 443.6 475.516 442.814C475.953 442.015 476.545 441.385 477.294 440.923C478.055 440.461 478.91 440.231 479.859 440.231C480.695 440.231 481.437 440.412 482.086 440.773C482.735 441.123 483.247 441.597 483.621 442.196L483.341 442.627V436.374H485.1V450.545H483.397V448.392L483.621 448.692C483.272 449.353 482.76 449.865 482.086 450.227C481.425 450.589 480.682 450.77 479.859 450.77ZM480.008 449.085C480.645 449.085 481.213 448.929 481.712 448.617C482.211 448.305 482.604 447.881 482.891 447.344C483.191 446.795 483.341 446.183 483.341 445.509C483.341 444.823 483.191 444.212 482.891 443.675C482.604 443.126 482.211 442.695 481.712 442.383C481.213 442.071 480.645 441.915 480.008 441.915C479.385 441.915 478.817 442.078 478.305 442.402C477.806 442.714 477.413 443.138 477.126 443.675C476.839 444.199 476.695 444.811 476.695 445.509C476.695 446.183 476.839 446.795 477.126 447.344C477.413 447.881 477.806 448.305 478.305 448.617C478.804 448.929 479.372 449.085 480.008 449.085ZM492.587 450.77C491.613 450.77 490.734 450.545 489.947 450.096C489.161 449.634 488.537 449.004 488.076 448.205C487.614 447.406 487.383 446.502 487.383 445.491C487.383 444.48 487.608 443.581 488.057 442.795C488.519 442.009 489.143 441.385 489.929 440.923C490.715 440.461 491.601 440.231 492.587 440.231C493.56 440.231 494.44 440.461 495.226 440.923C496.013 441.372 496.63 441.99 497.08 442.776C497.541 443.563 497.772 444.467 497.772 445.491C497.772 446.514 497.535 447.425 497.061 448.224C496.587 449.01 495.956 449.634 495.17 450.096C494.396 450.545 493.535 450.77 492.587 450.77ZM492.587 449.085C493.211 449.085 493.772 448.929 494.272 448.617C494.783 448.305 495.183 447.874 495.47 447.325C495.769 446.776 495.919 446.165 495.919 445.491C495.919 444.804 495.769 444.199 495.47 443.675C495.183 443.138 494.783 442.714 494.272 442.402C493.772 442.078 493.211 441.915 492.587 441.915C491.95 441.915 491.376 442.078 490.865 442.402C490.366 442.714 489.966 443.138 489.667 443.675C489.367 444.199 489.217 444.804 489.217 445.491C489.217 446.165 489.367 446.776 489.667 447.325C489.966 447.874 490.366 448.305 490.865 448.617C491.376 448.929 491.95 449.085 492.587 449.085Z" fill="#E8FF43"/>
<circle cx="103.65" cy="442.505" r="33.8855" fill="#545454"/>
<path d="M113.963 455.765V452.819C113.963 451.256 113.342 449.757 112.237 448.652C111.132 447.547 109.633 446.926 108.07 446.926H99.23C97.6671 446.926 96.1681 447.547 95.063 448.652C93.9578 449.757 93.3369 451.256 93.3369 452.819V455.765" stroke="#979797" stroke-width="2.94648" stroke-linecap="round" stroke-linejoin="round"/>
<path d="M103.649 441.03C106.904 441.03 109.542 438.392 109.542 435.137C109.542 431.883 106.904 429.244 103.649 429.244C100.394 429.244 97.7559 431.883 97.7559 435.137C97.7559 438.392 100.394 441.03 103.649 441.03Z" stroke="#979797" stroke-width="2.94648" stroke-linecap="round" stroke-linejoin="round"/>
<path d="M162.595 435.619V432.769H163.709C164.573 432.769 165.264 432.518 165.782 432.017C166.301 431.499 166.56 430.808 166.56 429.944V416.314H169.592V429.841C169.592 431.015 169.35 432.035 168.866 432.898C168.4 433.762 167.717 434.436 166.819 434.92C165.938 435.386 164.901 435.619 163.709 435.619H162.595ZM178.263 435.93C177.209 435.93 176.285 435.697 175.491 435.23C174.696 434.747 174.074 434.082 173.625 433.235C173.193 432.371 172.977 431.378 172.977 430.255V421.601H175.905V429.996C175.905 430.635 176.035 431.197 176.294 431.68C176.553 432.164 176.916 432.544 177.382 432.821C177.849 433.08 178.384 433.209 178.989 433.209C179.611 433.209 180.155 433.071 180.621 432.795C181.088 432.518 181.45 432.13 181.71 431.629C181.986 431.128 182.124 430.54 182.124 429.867V421.601H185.026V435.619H182.254V432.872L182.565 433.235C182.236 434.099 181.692 434.764 180.932 435.23C180.172 435.697 179.282 435.93 178.263 435.93ZM188.445 435.619V416.003H191.373V435.619H188.445ZM194.797 435.619V421.601H197.725V435.619H194.797ZM194.797 419.683V416.314H197.725V419.683H194.797ZM207.911 435.93C206.564 435.93 205.329 435.611 204.206 434.971C203.1 434.332 202.219 433.46 201.563 432.354C200.906 431.249 200.578 429.996 200.578 428.597C200.578 427.18 200.906 425.928 201.563 424.84C202.219 423.734 203.1 422.87 204.206 422.248C205.312 421.609 206.547 421.29 207.911 421.29C209.293 421.29 210.529 421.609 211.617 422.248C212.723 422.87 213.595 423.734 214.234 424.84C214.891 425.928 215.219 427.18 215.219 428.597C215.219 430.013 214.891 431.274 214.234 432.38C213.578 433.486 212.697 434.358 211.591 434.997C210.485 435.619 209.259 435.93 207.911 435.93ZM207.911 433.209C208.741 433.209 209.475 433.011 210.114 432.613C210.753 432.216 211.254 431.672 211.617 430.981C211.997 430.273 212.187 429.478 212.187 428.597C212.187 427.716 211.997 426.93 211.617 426.239C211.254 425.548 210.753 425.004 210.114 424.606C209.475 424.209 208.741 424.01 207.911 424.01C207.1 424.01 206.365 424.209 205.709 424.606C205.07 425.004 204.56 425.548 204.18 426.239C203.817 426.93 203.636 427.716 203.636 428.597C203.636 429.478 203.817 430.273 204.18 430.981C204.56 431.672 205.07 432.216 205.709 432.613C206.365 433.011 207.1 433.209 207.911 433.209ZM222.892 435.619V416.314H235.615V419.035H225.95V424.58H235.097V427.301H225.95V432.898H235.615V435.619H222.892ZM238.17 435.619V421.601H240.968V424.632L240.605 424.166C240.899 423.216 241.435 422.499 242.212 422.015C242.989 421.531 243.879 421.29 244.881 421.29C246.004 421.29 246.997 421.592 247.861 422.196C248.742 422.784 249.329 423.57 249.623 424.555L248.794 424.632C249.208 423.509 249.839 422.672 250.685 422.119C251.549 421.566 252.534 421.29 253.639 421.29C254.607 421.29 255.479 421.514 256.257 421.963C257.051 422.412 257.682 423.034 258.148 423.829C258.615 424.624 258.848 425.531 258.848 426.55V435.619H255.92V427.353C255.92 426.645 255.79 426.049 255.531 425.565C255.289 425.064 254.944 424.684 254.495 424.425C254.063 424.149 253.553 424.01 252.966 424.01C252.378 424.01 251.86 424.149 251.411 424.425C250.962 424.684 250.608 425.064 250.349 425.565C250.089 426.066 249.96 426.662 249.96 427.353V435.619H247.058V427.353C247.058 426.645 246.928 426.049 246.669 425.565C246.427 425.064 246.082 424.684 245.633 424.425C245.201 424.149 244.682 424.01 244.078 424.01C243.49 424.01 242.972 424.149 242.523 424.425C242.074 424.684 241.72 425.064 241.461 425.565C241.219 426.066 241.098 426.662 241.098 427.353V435.619H238.17ZM266.18 435.93C265.23 435.93 264.392 435.766 263.666 435.438C262.958 435.092 262.405 434.626 262.008 434.038C261.61 433.434 261.412 432.726 261.412 431.914C261.412 431.154 261.576 430.471 261.904 429.867C262.25 429.262 262.777 428.752 263.485 428.338C264.193 427.923 265.083 427.629 266.154 427.457L271.025 426.653V428.96L266.724 429.711C265.946 429.849 265.376 430.1 265.014 430.463C264.651 430.808 264.469 431.257 264.469 431.81C264.469 432.346 264.668 432.786 265.065 433.132C265.48 433.46 266.007 433.624 266.646 433.624C267.441 433.624 268.132 433.451 268.719 433.106C269.324 432.76 269.79 432.302 270.118 431.732C270.447 431.145 270.611 430.497 270.611 429.789V426.187C270.611 425.496 270.352 424.935 269.833 424.503C269.332 424.054 268.659 423.829 267.812 423.829C267.035 423.829 266.352 424.036 265.765 424.451C265.195 424.848 264.772 425.366 264.495 426.006L262.06 424.788C262.319 424.097 262.742 423.492 263.329 422.974C263.917 422.438 264.599 422.024 265.376 421.73C266.171 421.436 267.009 421.29 267.89 421.29C268.995 421.29 269.972 421.497 270.818 421.911C271.682 422.326 272.347 422.905 272.813 423.648C273.297 424.373 273.539 425.22 273.539 426.187V435.619H270.74V433.08L271.336 433.157C271.008 433.728 270.585 434.22 270.067 434.634C269.566 435.049 268.987 435.369 268.33 435.593C267.691 435.818 266.974 435.93 266.18 435.93ZM276.962 435.619V421.601H279.761V424.347L279.424 423.984C279.77 423.103 280.322 422.438 281.083 421.989C281.843 421.523 282.724 421.29 283.726 421.29C284.762 421.29 285.678 421.514 286.472 421.963C287.267 422.412 287.889 423.034 288.338 423.829C288.787 424.624 289.012 425.539 289.012 426.576V435.619H286.11V427.353C286.11 426.645 285.98 426.049 285.721 425.565C285.462 425.064 285.09 424.684 284.607 424.425C284.14 424.149 283.605 424.01 283 424.01C282.395 424.01 281.851 424.149 281.368 424.425C280.901 424.684 280.538 425.064 280.279 425.565C280.02 426.066 279.891 426.662 279.891 427.353V435.619H276.962ZM297.147 435.93C296.093 435.93 295.169 435.697 294.374 435.23C293.579 434.747 292.957 434.082 292.508 433.235C292.076 432.371 291.861 431.378 291.861 430.255V421.601H294.789V429.996C294.789 430.635 294.918 431.197 295.177 431.68C295.436 432.164 295.799 432.544 296.266 432.821C296.732 433.08 297.268 433.209 297.872 433.209C298.494 433.209 299.038 433.071 299.505 432.795C299.971 432.518 300.334 432.13 300.593 431.629C300.869 431.128 301.008 430.54 301.008 429.867V421.601H303.91V435.619H301.137V432.872L301.448 433.235C301.12 434.099 300.576 434.764 299.816 435.23C299.056 435.697 298.166 435.93 297.147 435.93ZM313.91 435.93C312.511 435.93 311.267 435.611 310.179 434.971C309.108 434.315 308.27 433.434 307.666 432.328C307.061 431.205 306.759 429.953 306.759 428.571C306.759 427.154 307.061 425.902 307.666 424.814C308.287 423.725 309.117 422.87 310.153 422.248C311.19 421.609 312.364 421.29 313.677 421.29C314.731 421.29 315.672 421.471 316.502 421.834C317.331 422.196 318.031 422.697 318.601 423.337C319.171 423.959 319.603 424.675 319.896 425.487C320.207 426.299 320.363 427.163 320.363 428.079C320.363 428.303 320.354 428.536 320.337 428.778C320.319 429.02 320.285 429.245 320.233 429.452H309.065V427.12H318.575L317.175 428.182C317.348 427.336 317.288 426.584 316.994 425.928C316.718 425.254 316.286 424.727 315.698 424.347C315.128 423.95 314.455 423.751 313.677 423.751C312.9 423.751 312.209 423.95 311.604 424.347C311 424.727 310.533 425.28 310.205 426.006C309.877 426.714 309.747 427.578 309.816 428.597C309.73 429.547 309.859 430.376 310.205 431.084C310.568 431.793 311.069 432.346 311.708 432.743C312.364 433.14 313.107 433.339 313.936 433.339C314.783 433.339 315.5 433.149 316.087 432.769C316.692 432.389 317.167 431.896 317.512 431.292L319.896 432.458C319.62 433.114 319.188 433.71 318.601 434.246C318.031 434.764 317.34 435.179 316.528 435.49C315.733 435.783 314.861 435.93 313.91 435.93ZM323.22 435.619V416.003H326.148V435.619H323.22Z" fill="white"/>
<path d="M168.631 468.9C167.706 468.9 166.837 468.741 166.024 468.422C165.21 468.087 164.501 467.617 163.895 467.011C163.305 466.389 162.874 465.663 162.603 464.834L164.517 464.021C164.852 464.898 165.394 465.584 166.143 466.078C166.909 466.556 167.738 466.795 168.631 466.795C169.364 466.795 170.01 466.636 170.568 466.317C171.142 465.982 171.589 465.528 171.908 464.954C172.227 464.364 172.386 463.71 172.386 462.992C172.386 462.243 172.219 461.581 171.884 461.007C171.565 460.433 171.126 459.986 170.568 459.668C170.01 459.333 169.372 459.165 168.655 459.165C167.921 459.165 167.251 459.333 166.646 459.668C166.04 460.002 165.601 460.425 165.33 460.935L163.44 460.529L164.804 450.793H174.037V452.827H165.689L166.598 451.918L165.545 459.476L164.732 458.998C165.258 458.328 165.872 457.85 166.574 457.563C167.291 457.26 168.065 457.108 168.894 457.108C170.058 457.108 171.079 457.371 171.956 457.897C172.833 458.424 173.518 459.125 174.013 460.002C174.507 460.879 174.754 461.876 174.754 462.992C174.754 464.108 174.483 465.113 173.941 466.006C173.415 466.899 172.689 467.609 171.764 468.135C170.855 468.645 169.811 468.9 168.631 468.9ZM183.37 468.9C182.445 468.9 181.576 468.741 180.763 468.422C179.95 468.087 179.24 467.617 178.634 467.011C178.044 466.389 177.614 465.663 177.342 464.834L179.256 464.021C179.591 464.898 180.133 465.584 180.883 466.078C181.648 466.556 182.477 466.795 183.37 466.795C184.104 466.795 184.749 466.636 185.308 466.317C185.882 465.982 186.328 465.528 186.647 464.954C186.966 464.364 187.125 463.71 187.125 462.992C187.125 462.243 186.958 461.581 186.623 461.007C186.304 460.433 185.866 459.986 185.308 459.668C184.749 459.333 184.112 459.165 183.394 459.165C182.661 459.165 181.991 459.333 181.385 459.668C180.779 460.002 180.34 460.425 180.069 460.935L178.18 460.529L179.543 450.793H188.776V452.827H180.428L181.337 451.918L180.285 459.476L179.471 458.998C179.997 458.328 180.611 457.85 181.313 457.563C182.031 457.26 182.804 457.108 183.633 457.108C184.797 457.108 185.818 457.371 186.695 457.897C187.572 458.424 188.258 459.125 188.752 460.002C189.246 460.879 189.493 461.876 189.493 462.992C189.493 464.108 189.222 465.113 188.68 466.006C188.154 466.899 187.428 467.609 186.504 468.135C185.595 468.645 184.55 468.9 183.37 468.9ZM195.191 468.613V452.827H191.819V450.793H197.559V468.613H195.191ZM204.324 468.613V452.827H200.952V450.793H206.692V468.613H204.324ZM212.262 468.613L218.409 460.6L218.839 460.648C218.6 460.967 218.337 461.222 218.05 461.414C217.763 461.589 217.444 461.717 217.093 461.796C216.758 461.876 216.392 461.916 215.993 461.916C214.941 461.916 213.992 461.677 213.147 461.198C212.317 460.704 211.656 460.034 211.161 459.189C210.683 458.328 210.444 457.347 210.444 456.247C210.444 455.147 210.699 454.166 211.209 453.305C211.72 452.444 212.421 451.766 213.314 451.272C214.207 450.762 215.212 450.506 216.328 450.506C217.476 450.506 218.489 450.762 219.366 451.272C220.259 451.766 220.96 452.46 221.471 453.353C221.981 454.23 222.236 455.242 222.236 456.391C222.236 457.012 222.164 457.626 222.021 458.232C221.877 458.838 221.646 459.452 221.327 460.074C221.024 460.696 220.617 461.342 220.107 462.012L215.084 468.613H212.262ZM216.328 459.859C217.014 459.859 217.62 459.707 218.146 459.404C218.688 459.085 219.111 458.655 219.414 458.113C219.716 457.555 219.868 456.933 219.868 456.247C219.868 455.529 219.709 454.9 219.39 454.357C219.087 453.815 218.672 453.385 218.146 453.066C217.62 452.747 217.014 452.587 216.328 452.587C215.658 452.587 215.06 452.747 214.534 453.066C214.008 453.385 213.585 453.815 213.266 454.357C212.963 454.9 212.812 455.529 212.812 456.247C212.812 456.933 212.963 457.555 213.266 458.113C213.569 458.655 213.984 459.085 214.51 459.404C215.052 459.707 215.658 459.859 216.328 459.859ZM226.58 468.613L232.728 460.6L233.158 460.648C232.919 460.967 232.656 461.222 232.369 461.414C232.082 461.589 231.763 461.717 231.412 461.796C231.077 461.876 230.711 461.916 230.312 461.916C229.259 461.916 228.311 461.677 227.466 461.198C226.636 460.704 225.975 460.034 225.48 459.189C225.002 458.328 224.763 457.347 224.763 456.247C224.763 455.147 225.018 454.166 225.528 453.305C226.038 452.444 226.74 451.766 227.633 451.272C228.526 450.762 229.531 450.506 230.647 450.506C231.795 450.506 232.807 450.762 233.684 451.272C234.577 451.766 235.279 452.46 235.789 453.353C236.3 454.23 236.555 455.242 236.555 456.391C236.555 457.012 236.483 457.626 236.34 458.232C236.196 458.838 235.965 459.452 235.646 460.074C235.343 460.696 234.936 461.342 234.426 462.012L229.403 468.613H226.58ZM230.647 459.859C231.332 459.859 231.938 459.707 232.465 459.404C233.007 459.085 233.429 458.655 233.732 458.113C234.035 457.555 234.187 456.933 234.187 456.247C234.187 455.529 234.027 454.9 233.708 454.357C233.405 453.815 232.991 453.385 232.465 453.066C231.938 452.747 231.332 452.587 230.647 452.587C229.977 452.587 229.379 452.747 228.853 453.066C228.327 453.385 227.904 453.815 227.585 454.357C227.282 454.9 227.131 455.529 227.131 456.247C227.131 456.933 227.282 457.555 227.585 458.113C227.888 458.655 228.303 459.085 228.829 459.404C229.371 459.707 229.977 459.859 230.647 459.859ZM245.372 468.9C244.176 468.9 243.116 468.661 242.191 468.183C241.282 467.704 240.564 467.059 240.038 466.245C239.528 465.416 239.273 464.491 239.273 463.471C239.273 462.323 239.592 461.318 240.23 460.457C240.867 459.596 241.744 458.982 242.861 458.615L242.813 459.213C241.968 458.878 241.306 458.344 240.828 457.61C240.365 456.861 240.134 456.056 240.134 455.195C240.134 454.286 240.357 453.48 240.804 452.779C241.266 452.077 241.888 451.527 242.669 451.128C243.467 450.714 244.368 450.506 245.372 450.506C246.377 450.506 247.27 450.706 248.051 451.104C248.833 451.503 249.446 452.061 249.893 452.779C250.355 453.48 250.587 454.286 250.587 455.195C250.587 456.104 250.339 456.917 249.845 457.634C249.367 458.352 248.729 458.886 247.932 459.237L247.86 458.615C248.992 458.982 249.877 459.604 250.515 460.481C251.153 461.342 251.472 462.338 251.472 463.471C251.472 464.491 251.208 465.416 250.682 466.245C250.172 467.059 249.454 467.704 248.53 468.183C247.621 468.661 246.568 468.9 245.372 468.9ZM245.372 466.867C246.122 466.867 246.775 466.724 247.334 466.437C247.892 466.15 248.322 465.751 248.625 465.241C248.944 464.714 249.104 464.116 249.104 463.447C249.104 462.761 248.944 462.163 248.625 461.653C248.322 461.127 247.892 460.728 247.334 460.457C246.775 460.17 246.122 460.026 245.372 460.026C244.623 460.026 243.961 460.17 243.387 460.457C242.829 460.728 242.398 461.127 242.095 461.653C241.792 462.163 241.641 462.761 241.641 463.447C241.641 464.116 241.792 464.714 242.095 465.241C242.398 465.751 242.829 466.15 243.387 466.437C243.961 466.724 244.623 466.867 245.372 466.867ZM245.372 457.993C245.914 457.993 246.393 457.874 246.807 457.634C247.238 457.395 247.581 457.076 247.836 456.678C248.091 456.263 248.219 455.785 248.219 455.242C248.219 454.7 248.091 454.23 247.836 453.831C247.581 453.433 247.238 453.122 246.807 452.898C246.393 452.659 245.914 452.54 245.372 452.54C244.814 452.54 244.32 452.659 243.889 452.898C243.459 453.122 243.116 453.433 242.861 453.831C242.606 454.23 242.478 454.7 242.478 455.242C242.478 455.785 242.606 456.263 242.861 456.678C243.116 457.076 243.459 457.395 243.889 457.634C244.32 457.874 244.814 457.993 245.372 457.993ZM254.722 468.613L262.544 452.827H253.813V450.793H265.008V452.827L257.258 468.613H254.722ZM271.993 468.9C270.845 468.9 269.824 468.645 268.931 468.135C268.054 467.625 267.361 466.931 266.851 466.054C266.34 465.161 266.085 464.148 266.085 463.016C266.085 462.394 266.157 461.78 266.3 461.174C266.444 460.568 266.675 459.955 266.994 459.333C267.313 458.711 267.72 458.065 268.214 457.395L273.237 450.793H276.059L269.912 458.782L269.482 458.735C269.721 458.416 269.984 458.169 270.271 457.993C270.574 457.818 270.893 457.69 271.228 457.61C271.579 457.531 271.945 457.491 272.328 457.491C273.38 457.491 274.321 457.738 275.15 458.232C275.996 458.711 276.657 459.373 277.136 460.218C277.63 461.063 277.877 462.036 277.877 463.136C277.877 464.236 277.622 465.225 277.112 466.102C276.602 466.963 275.9 467.649 275.007 468.159C274.13 468.653 273.125 468.9 271.993 468.9ZM271.993 466.795C272.663 466.795 273.261 466.644 273.787 466.341C274.313 466.022 274.728 465.584 275.031 465.025C275.35 464.467 275.509 463.845 275.509 463.16C275.509 462.442 275.358 461.82 275.055 461.294C274.752 460.752 274.337 460.321 273.811 460.002C273.285 459.683 272.679 459.524 271.993 459.524C271.323 459.524 270.717 459.683 270.175 460.002C269.633 460.321 269.211 460.752 268.908 461.294C268.605 461.82 268.453 462.442 268.453 463.16C268.453 463.845 268.605 464.467 268.908 465.025C269.226 465.584 269.649 466.022 270.175 466.341C270.717 466.644 271.323 466.795 271.993 466.795ZM286.288 468.9C285.363 468.9 284.494 468.741 283.681 468.422C282.868 468.087 282.158 467.617 281.552 467.011C280.962 466.389 280.531 465.663 280.26 464.834L282.174 464.021C282.509 464.898 283.051 465.584 283.8 466.078C284.566 466.556 285.395 466.795 286.288 466.795C287.022 466.795 287.667 466.636 288.225 466.317C288.8 465.982 289.246 465.528 289.565 464.954C289.884 464.364 290.043 463.71 290.043 462.992C290.043 462.243 289.876 461.581 289.541 461.007C289.222 460.433 288.784 459.986 288.225 459.668C287.667 459.333 287.03 459.165 286.312 459.165C285.578 459.165 284.909 459.333 284.303 459.668C283.697 460.002 283.258 460.425 282.987 460.935L281.098 460.529L282.461 450.793H291.694V452.827H283.346L284.255 451.918L283.202 459.476L282.389 458.998C282.915 458.328 283.529 457.85 284.231 457.563C284.949 457.26 285.722 457.108 286.551 457.108C287.715 457.108 288.736 457.371 289.613 457.897C290.49 458.424 291.176 459.125 291.67 460.002C292.164 460.879 292.411 461.876 292.411 462.992C292.411 464.108 292.14 465.113 291.598 466.006C291.072 466.899 290.346 467.609 289.421 468.135C288.513 468.645 287.468 468.9 286.288 468.9ZM303.634 468.613V464.499H294.88V462.562L303.587 450.793H305.835V462.562H308.155V464.499H305.835V468.613H303.634ZM296.65 463.399L296.315 462.562H303.634V452.755L304.328 452.946L296.65 463.399ZM316.137 468.9C315.196 468.9 314.319 468.733 313.506 468.398C312.693 468.063 311.991 467.593 311.401 466.987C310.811 466.365 310.372 465.631 310.085 464.786L312.071 463.973C312.406 464.866 312.932 465.56 313.649 466.054C314.367 466.548 315.196 466.795 316.137 466.795C316.87 466.795 317.524 466.652 318.098 466.365C318.672 466.078 319.119 465.663 319.438 465.121C319.773 464.579 319.94 463.925 319.94 463.16C319.94 462.378 319.773 461.725 319.438 461.198C319.119 460.656 318.672 460.242 318.098 459.955C317.524 459.668 316.862 459.524 316.113 459.524C315.874 459.524 315.611 459.54 315.324 459.572C315.053 459.604 314.821 459.652 314.63 459.715L314.128 458.639L318.888 452.827H310.994V450.793H321.543V452.755L316.998 458.352L316.855 457.73C317.923 457.762 318.864 458.009 319.677 458.472C320.49 458.934 321.128 459.564 321.591 460.361C322.053 461.143 322.284 462.059 322.284 463.112C322.284 464.196 322.021 465.177 321.495 466.054C320.969 466.931 320.243 467.625 319.318 468.135C318.393 468.645 317.333 468.9 316.137 468.9ZM324.995 468.613V466.987L329.923 461.653C330.896 460.616 331.669 459.763 332.243 459.093C332.833 458.424 333.264 457.826 333.535 457.3C333.806 456.773 333.941 456.215 333.941 455.625C333.941 454.652 333.654 453.903 333.08 453.377C332.506 452.851 331.749 452.587 330.808 452.587C329.851 452.587 329.038 452.866 328.368 453.425C327.698 453.967 327.236 454.74 326.981 455.745L324.852 455.195C325.059 454.238 325.442 453.409 326 452.707C326.558 452.005 327.252 451.463 328.081 451.081C328.91 450.698 329.819 450.506 330.808 450.506C331.892 450.506 332.841 450.722 333.654 451.152C334.483 451.567 335.129 452.149 335.592 452.898C336.07 453.648 336.309 454.517 336.309 455.506C336.309 456.159 336.174 456.797 335.903 457.419C335.632 458.041 335.233 458.703 334.707 459.404C334.18 460.09 333.495 460.887 332.65 461.796L328.248 466.58H336.692V468.613H324.995Z" fill="#888888"/>
<path d="M50.7888 98.7715V95.4866C52.9575 93.7006 54.7647 92.1592 56.2105 90.8622C57.6775 89.544 58.8469 88.3852 59.7186 87.3859C60.5904 86.3867 61.2069 85.4724 61.5684 84.6432C61.9511 83.7928 62.1424 82.9636 62.1424 82.1556C62.1424 81.0925 61.8448 80.2633 61.2495 79.668C60.6541 79.0727 59.8249 78.775 58.7619 78.775C57.6563 78.775 56.7527 79.1046 56.051 79.7637C55.3494 80.4015 54.9242 81.3052 54.7753 82.4745H50.5656C50.7994 80.3271 51.6605 78.6262 53.1488 77.3718C54.6371 76.1174 56.5719 75.4901 58.9532 75.4901C61.3132 75.4901 63.163 76.1067 64.5025 77.3399C65.8632 78.5518 66.5436 80.2421 66.5436 82.4108C66.5436 83.4951 66.3522 84.5475 65.9695 85.5681C65.6081 86.5674 64.9915 87.6198 64.1198 88.7254C63.2693 89.8098 62.1212 91.011 60.6754 92.3292C59.2509 93.6262 57.4649 95.1039 55.3175 96.7623L54.3288 95.4866H66.9582V98.7715H50.7888ZM77.4258 99.0904C75.8737 99.0904 74.5342 98.8034 73.4074 98.2293C72.2805 97.6553 71.3875 96.8367 70.7284 95.7736C70.0693 94.7105 69.6441 93.4561 69.4527 92.0103H73.6625C73.7901 93.3073 74.1834 94.264 74.8425 94.8806C75.5016 95.4972 76.4053 95.8055 77.5534 95.8055C78.3613 95.8055 79.0523 95.646 79.6264 95.3271C80.2004 94.9869 80.6682 94.4767 81.0296 93.7963C81.3911 93.0947 81.6462 92.191 81.795 91.0855C81.9651 89.9799 82.0502 88.651 82.0502 87.0989V85.0259L83.1664 85.0897C82.9538 86.089 82.5392 86.9607 81.9226 87.7049C81.306 88.449 80.53 89.0337 79.5945 89.4589C78.659 89.8629 77.6172 90.0649 76.469 90.0649C75.0233 90.0649 73.7476 89.7566 72.642 89.14C71.5576 88.5234 70.6965 87.673 70.0587 86.5886C69.4421 85.5043 69.1338 84.2605 69.1338 82.8572C69.1338 81.3689 69.4846 80.0826 70.1863 78.9983C70.8879 77.8927 71.8659 77.0316 73.1204 76.415C74.3748 75.7984 75.8312 75.4901 77.4896 75.4901C80.4449 75.4901 82.6987 76.4788 84.2508 78.4561C85.8241 80.4122 86.6108 83.2718 86.6108 87.0351C86.6108 89.5653 86.2493 91.7339 85.5264 93.5412C84.8248 95.3271 83.783 96.6985 82.401 97.6553C81.0403 98.612 79.3819 99.0904 77.4258 99.0904ZM77.7766 86.8438C79.0523 86.8438 80.0516 86.493 80.7745 85.7913C81.4974 85.0897 81.8588 84.1542 81.8588 82.9848C81.8588 82.1769 81.6887 81.454 81.3486 80.8161C81.0296 80.1783 80.5619 79.6787 79.9453 79.3172C79.3287 78.9558 78.5952 78.775 77.7447 78.775C76.4903 78.775 75.5016 79.1577 74.7788 79.9232C74.0559 80.6673 73.6944 81.6347 73.6944 82.8254C73.6944 83.9947 74.0452 84.9621 74.7469 85.7276C75.4698 86.4717 76.4797 86.8438 77.7766 86.8438Z" fill="#E8FF43"/>
<path d="M96.0349 98.7715V75.8091H102.477L109.493 97.9423H107.229L114.245 75.8091H120.72V98.7715H116.637V77.1804H117.307L110.482 98.7715H106.049L99.288 77.3718H99.9258V98.7715H96.0349ZM132.151 99.0904C130.429 99.0904 128.919 98.729 127.622 98.0061C126.347 97.2832 125.347 96.2839 124.624 95.0082C123.923 93.7325 123.572 92.2655 123.572 90.6071C123.572 88.9487 123.923 87.4923 124.624 86.2378C125.347 84.9621 126.347 83.9735 127.622 83.2718C128.898 82.549 130.386 82.1875 132.087 82.1875C133.703 82.1875 135.106 82.5277 136.297 83.2081C137.488 83.8672 138.412 84.8027 139.072 86.0146C139.731 87.2265 140.06 88.6404 140.06 90.2563C140.06 90.5539 140.05 90.8303 140.028 91.0855C140.007 91.3406 139.975 91.5957 139.933 91.8509H126.06V89.0443H136.839L136.01 89.8098C136.01 88.2789 135.659 87.1308 134.957 86.3654C134.256 85.6 133.278 85.2173 132.023 85.2173C130.663 85.2173 129.578 85.685 128.77 86.6205C127.984 87.556 127.59 88.9061 127.59 90.6709C127.59 92.4143 127.984 93.7538 128.77 94.6893C129.578 95.6035 130.716 96.0606 132.183 96.0606C133.033 96.0606 133.777 95.9012 134.415 95.5823C135.053 95.2633 135.521 94.7743 135.819 94.1152H139.614C139.082 95.646 138.179 96.8579 136.903 97.7509C135.648 98.6439 134.064 99.0904 132.151 99.0904ZM143.067 98.7715V82.5064H146.99V86.3335H147.086V98.7715H143.067ZM154.485 98.7715V88.5022C154.485 87.5029 154.23 86.7481 153.719 86.2378C153.209 85.7276 152.465 85.4724 151.487 85.4724C150.636 85.4724 149.871 85.6638 149.191 86.0465C148.531 86.4292 148.011 86.9607 147.628 87.6411C147.266 88.3215 147.086 89.1081 147.086 90.0011L146.671 86.1103C147.224 84.9196 148.032 83.9735 149.095 83.2718C150.158 82.549 151.434 82.1875 152.922 82.1875C154.687 82.1875 156.058 82.6872 157.036 83.6864C158.035 84.6857 158.535 86.0146 158.535 87.673V98.7715H154.485ZM168.752 99.0904C166.498 99.0904 164.701 98.6227 163.362 97.6871C162.023 96.7304 161.289 95.4122 161.161 93.7325H164.829C164.935 94.5617 165.329 95.1889 166.009 95.6142C166.689 96.0394 167.604 96.252 168.752 96.252C169.794 96.252 170.57 96.0925 171.08 95.7736C171.611 95.4334 171.877 94.955 171.877 94.3385C171.877 93.892 171.728 93.5305 171.431 93.2541C171.133 92.9565 170.57 92.712 169.74 92.5206L167.125 91.9146C165.339 91.5319 164.01 90.9366 163.139 90.1287C162.288 89.2995 161.863 88.2683 161.863 87.0351C161.863 85.5256 162.437 84.3456 163.585 83.4951C164.755 82.6234 166.36 82.1875 168.401 82.1875C170.421 82.1875 172.037 82.6234 173.249 83.4951C174.482 84.3456 175.162 85.5256 175.29 87.0351H171.622C171.516 86.376 171.176 85.8764 170.602 85.5362C170.049 85.196 169.283 85.0259 168.305 85.0259C167.391 85.0259 166.7 85.1748 166.232 85.4724C165.765 85.7488 165.531 86.1634 165.531 86.7162C165.531 87.1414 165.711 87.5029 166.073 87.8005C166.434 88.0769 167.04 88.3215 167.891 88.5341L170.697 89.1719C172.292 89.5334 173.493 90.1606 174.301 91.0536C175.13 91.9465 175.545 92.999 175.545 94.2109C175.545 95.763 174.95 96.9643 173.759 97.8147C172.568 98.6652 170.899 99.0904 168.752 99.0904ZM188.714 98.7715C188.608 98.3463 188.523 97.8785 188.459 97.3682C188.416 96.8579 188.395 96.2414 188.395 95.5185H188.268V87.8005C188.268 86.9501 188.023 86.3122 187.534 85.887C187.066 85.4405 186.343 85.2173 185.365 85.2173C184.409 85.2173 183.643 85.398 183.069 85.7594C182.516 86.0996 182.176 86.5993 182.049 87.2584H178.19C178.36 85.7488 179.083 84.5263 180.358 83.5908C181.634 82.6553 183.346 82.1875 185.493 82.1875C187.725 82.1875 189.416 82.6978 190.564 83.7183C191.712 84.7176 192.286 86.1953 192.286 88.1514V95.5185C192.286 96.0288 192.318 96.5497 192.382 97.0812C192.467 97.6127 192.584 98.1762 192.733 98.7715H188.714ZM183.069 99.0904C181.432 99.0904 180.124 98.6864 179.146 97.8785C178.19 97.0493 177.711 95.9437 177.711 94.5617C177.711 93.0734 178.253 91.8934 179.338 91.0217C180.422 90.1499 181.953 89.5653 183.93 89.2676L189.001 88.5022V91.0536L184.6 91.7233C183.643 91.8721 182.92 92.1379 182.431 92.5206C181.964 92.9033 181.73 93.4348 181.73 94.1152C181.73 94.7318 181.953 95.2102 182.399 95.5504C182.846 95.8693 183.462 96.0288 184.249 96.0288C185.397 96.0288 186.354 95.7417 187.119 95.1677C187.885 94.5936 188.268 93.892 188.268 93.0628L188.714 95.5185C188.289 96.6879 187.587 97.5808 186.609 98.1974C185.652 98.7927 184.472 99.0904 183.069 99.0904ZM203.251 105.628C201.103 105.628 199.339 105.161 197.957 104.225C196.596 103.29 195.788 102.024 195.533 100.43H199.36C199.551 100.983 199.966 101.408 200.604 101.706C201.263 102.024 202.113 102.184 203.155 102.184C204.665 102.184 205.781 101.844 206.504 101.163C207.227 100.504 207.588 99.4944 207.588 98.1336V94.6255L207.875 94.6893C207.62 95.8799 206.971 96.8367 205.93 97.5596C204.888 98.2612 203.612 98.612 202.103 98.612C200.657 98.612 199.392 98.2718 198.307 97.5915C197.244 96.9111 196.415 95.965 195.82 94.7531C195.225 93.5199 194.927 92.0847 194.927 90.4476C194.927 88.7892 195.235 87.3434 195.852 86.1103C196.468 84.8771 197.329 83.9203 198.435 83.24C199.562 82.5383 200.869 82.1875 202.358 82.1875C203.889 82.1875 205.143 82.5596 206.121 83.3037C207.12 84.0266 207.737 85.0366 207.971 86.3335L207.716 86.3654V82.5064H211.638V98.1017C211.638 100.419 210.884 102.248 209.374 103.587C207.886 104.948 205.845 105.628 203.251 105.628ZM203.41 95.4228C204.707 95.4228 205.738 94.9869 206.504 94.1152C207.29 93.2222 207.684 91.9784 207.684 90.3838C207.684 88.7892 207.29 87.556 206.504 86.6843C205.717 85.8126 204.675 85.3767 203.378 85.3767C202.103 85.3767 201.071 85.8232 200.285 86.7162C199.498 87.5879 199.105 88.8211 199.105 90.4157C199.105 92.0103 199.498 93.2435 200.285 94.1152C201.071 94.9869 202.113 95.4228 203.41 95.4228ZM223.218 99.0904C221.496 99.0904 219.987 98.729 218.69 98.0061C217.414 97.2832 216.415 96.2839 215.692 95.0082C214.99 93.7325 214.639 92.2655 214.639 90.6071C214.639 88.9487 214.99 87.4923 215.692 86.2378C216.415 84.9621 217.414 83.9735 218.69 83.2718C219.965 82.549 221.454 82.1875 223.154 82.1875C224.77 82.1875 226.174 82.5277 227.364 83.2081C228.555 83.8672 229.48 84.8027 230.139 86.0146C230.798 87.2265 231.128 88.6404 231.128 90.2563C231.128 90.5539 231.117 90.8303 231.096 91.0855C231.074 91.3406 231.042 91.5957 231 91.8509H217.127V89.0443H227.906L227.077 89.8098C227.077 88.2789 226.726 87.1308 226.025 86.3654C225.323 85.6 224.345 85.2173 223.091 85.2173C221.73 85.2173 220.646 85.685 219.838 86.6205C219.051 87.556 218.658 88.9061 218.658 90.6709C218.658 92.4143 219.051 93.7538 219.838 94.6893C220.646 95.6035 221.783 96.0606 223.25 96.0606C224.101 96.0606 224.845 95.9012 225.483 95.5823C226.12 95.2633 226.588 94.7743 226.886 94.1152H230.681C230.15 95.646 229.246 96.8579 227.97 97.7509C226.716 98.6439 225.132 99.0904 223.218 99.0904ZM234.135 98.7715V82.5064H238.057V86.3335H238.153V98.7715H234.135ZM245.552 98.7715V88.5022C245.552 87.5029 245.297 86.7481 244.787 86.2378C244.276 85.7276 243.532 85.4724 242.554 85.4724C241.704 85.4724 240.938 85.6638 240.258 86.0465C239.599 86.4292 239.078 86.9607 238.695 87.6411C238.334 88.3215 238.153 89.1081 238.153 90.0011L237.738 86.1103C238.291 84.9196 239.099 83.9735 240.162 83.2718C241.225 82.549 242.501 82.1875 243.989 82.1875C245.754 82.1875 247.125 82.6872 248.103 83.6864C249.103 84.6857 249.602 86.0146 249.602 87.673V98.7715H245.552ZM259.819 99.0904C257.565 99.0904 255.769 98.6227 254.429 97.6871C253.09 96.7304 252.356 95.4122 252.229 93.7325H255.896C256.003 94.5617 256.396 95.1889 257.076 95.6142C257.757 96.0394 258.671 96.252 259.819 96.252C260.861 96.252 261.637 96.0925 262.147 95.7736C262.679 95.4334 262.945 94.955 262.945 94.3385C262.945 93.892 262.796 93.5305 262.498 93.2541C262.2 92.9565 261.637 92.712 260.808 92.5206L258.193 91.9146C256.407 91.5319 255.078 90.9366 254.206 90.1287C253.356 89.2995 252.93 88.2683 252.93 87.0351C252.93 85.5256 253.504 84.3456 254.653 83.4951C255.822 82.6234 257.427 82.1875 259.468 82.1875C261.488 82.1875 263.104 82.6234 264.316 83.4951C265.549 84.3456 266.229 85.5256 266.357 87.0351H262.689C262.583 86.376 262.243 85.8764 261.669 85.5362C261.116 85.196 260.351 85.0259 259.373 85.0259C258.458 85.0259 257.767 85.1748 257.3 85.4724C256.832 85.7488 256.598 86.1634 256.598 86.7162C256.598 87.1414 256.779 87.5029 257.14 87.8005C257.502 88.0769 258.108 88.3215 258.958 88.5341L261.765 89.1719C263.359 89.5334 264.56 90.1606 265.368 91.0536C266.198 91.9465 266.612 92.999 266.612 94.2109C266.612 95.763 266.017 96.9643 264.826 97.8147C263.636 98.6652 261.967 99.0904 259.819 99.0904ZM282.829 99.0904C281.107 99.0904 279.598 98.729 278.301 98.0061C277.025 97.2832 276.026 96.2839 275.303 95.0082C274.601 93.7325 274.25 92.2655 274.25 90.6071C274.25 88.9487 274.601 87.4923 275.303 86.2378C276.026 84.9621 277.025 83.9735 278.301 83.2718C279.576 82.549 281.065 82.1875 282.766 82.1875C284.381 82.1875 285.785 82.5277 286.975 83.2081C288.166 83.8672 289.091 84.8027 289.75 86.0146C290.409 87.2265 290.739 88.6404 290.739 90.2563C290.739 90.5539 290.728 90.8303 290.707 91.0855C290.686 91.3406 290.654 91.5957 290.611 91.8509H276.738V89.0443H287.518L286.688 89.8098C286.688 88.2789 286.338 87.1308 285.636 86.3654C284.934 85.6 283.956 85.2173 282.702 85.2173C281.341 85.2173 280.257 85.685 279.449 86.6205C278.662 87.556 278.269 88.9061 278.269 90.6709C278.269 92.4143 278.662 93.7538 279.449 94.6893C280.257 95.6035 281.394 96.0606 282.861 96.0606C283.712 96.0606 284.456 95.9012 285.094 95.5823C285.732 95.2633 286.199 94.7743 286.497 94.1152H290.292C289.761 95.646 288.857 96.8579 287.581 97.7509C286.327 98.6439 284.743 99.0904 282.829 99.0904ZM293.746 98.7715V82.5064H297.668V86.3335H297.764V98.7715H293.746ZM305.163 98.7715V88.5022C305.163 87.5029 304.908 86.7481 304.398 86.2378C303.887 85.7276 303.143 85.4724 302.165 85.4724C301.315 85.4724 300.549 85.6638 299.869 86.0465C299.21 86.4292 298.689 86.9607 298.306 87.6411C297.945 88.3215 297.764 89.1081 297.764 90.0011L297.35 86.1103C297.902 84.9196 298.71 83.9735 299.773 83.2718C300.836 82.549 302.112 82.1875 303.6 82.1875C305.365 82.1875 306.737 82.6872 307.715 83.6864C308.714 84.6857 309.213 86.0146 309.213 87.673V98.7715H305.163ZM317.148 98.7715L310.642 82.5064H314.98L320.178 97.4639H318.041L323.24 82.5064H327.449L320.911 98.7715H317.148ZM329.469 98.7715V82.5064H333.487V98.7715H329.469ZM329.277 79.8275V75.3945H333.647V79.8275H329.277ZM347.552 98.7715C347.446 98.3463 347.361 97.8785 347.297 97.3682C347.255 96.8579 347.234 96.2414 347.234 95.5185H347.106V87.8005C347.106 86.9501 346.861 86.3122 346.372 85.887C345.905 85.4405 345.182 85.2173 344.204 85.2173C343.247 85.2173 342.482 85.398 341.908 85.7594C341.355 86.0996 341.015 86.5993 340.887 87.2584H337.028C337.198 85.7488 337.921 84.5263 339.197 83.5908C340.472 82.6553 342.184 82.1875 344.331 82.1875C346.564 82.1875 348.254 82.6978 349.402 83.7183C350.55 84.7176 351.124 86.1953 351.124 88.1514V95.5185C351.124 96.0288 351.156 96.5497 351.22 97.0812C351.305 97.6127 351.422 98.1762 351.571 98.7715H347.552ZM341.908 99.0904C340.27 99.0904 338.963 98.6864 337.985 97.8785C337.028 97.0493 336.55 95.9437 336.55 94.5617C336.55 93.0734 337.092 91.8934 338.176 91.0217C339.26 90.1499 340.791 89.5653 342.769 89.2676L347.84 88.5022V91.0536L343.438 91.7233C342.482 91.8721 341.759 92.1379 341.27 92.5206C340.802 92.9033 340.568 93.4348 340.568 94.1152C340.568 94.7318 340.791 95.2102 341.238 95.5504C341.684 95.8693 342.301 96.0288 343.088 96.0288C344.236 96.0288 345.192 95.7417 345.958 95.1677C346.723 94.5936 347.106 93.892 347.106 93.0628L347.552 95.5185C347.127 96.6879 346.426 97.5808 345.448 98.1974C344.491 98.7927 343.311 99.0904 341.908 99.0904ZM366.554 98.7715V95.1039L366.873 95.1677C366.597 96.3583 365.927 97.3151 364.864 98.038C363.801 98.7396 362.536 99.0904 361.069 99.0904C359.58 99.0904 358.283 98.7502 357.178 98.0699C356.093 97.3682 355.254 96.3902 354.658 95.1358C354.063 93.8813 353.765 92.4037 353.765 90.7027C353.765 88.9806 354.074 87.4816 354.69 86.2059C355.307 84.9302 356.168 83.9416 357.273 83.24C358.4 82.5383 359.708 82.1875 361.196 82.1875C362.727 82.1875 363.992 82.5596 364.991 83.3037C365.991 84.0266 366.607 85.0366 366.841 86.3335L366.426 86.3654V75.8091H370.477V98.7715H366.554ZM362.249 95.8055C363.546 95.8055 364.577 95.359 365.342 94.466C366.129 93.5518 366.522 92.2761 366.522 90.639C366.522 89.0018 366.129 87.7368 365.342 86.8438C364.555 85.9508 363.514 85.5043 362.217 85.5043C360.941 85.5043 359.91 85.9614 359.123 86.8757C358.336 87.7687 357.943 89.0337 357.943 90.6709C357.943 92.308 358.336 93.573 359.123 94.466C359.91 95.359 360.952 95.8055 362.249 95.8055ZM384.895 98.7715C384.789 98.3463 384.704 97.8785 384.64 97.3682C384.597 96.8579 384.576 96.2414 384.576 95.5185H384.449V87.8005C384.449 86.9501 384.204 86.3122 383.715 85.887C383.247 85.4405 382.524 85.2173 381.546 85.2173C380.59 85.2173 379.824 85.398 379.25 85.7594C378.697 86.0996 378.357 86.5993 378.23 87.2584H374.371C374.541 85.7488 375.264 84.5263 376.539 83.5908C377.815 82.6553 379.527 82.1875 381.674 82.1875C383.906 82.1875 385.597 82.6978 386.745 83.7183C387.893 84.7176 388.467 86.1953 388.467 88.1514V95.5185C388.467 96.0288 388.499 96.5497 388.563 97.0812C388.648 97.6127 388.765 98.1762 388.913 98.7715H384.895ZM379.25 99.0904C377.613 99.0904 376.305 98.6864 375.327 97.8785C374.371 97.0493 373.892 95.9437 373.892 94.5617C373.892 93.0734 374.434 91.8934 375.519 91.0217C376.603 90.1499 378.134 89.5653 380.111 89.2676L385.182 88.5022V91.0536L380.781 91.7233C379.824 91.8721 379.101 92.1379 378.612 92.5206C378.145 92.9033 377.911 93.4348 377.911 94.1152C377.911 94.7318 378.134 95.2102 378.58 95.5504C379.027 95.8693 379.643 96.0288 380.43 96.0288C381.578 96.0288 382.535 95.7417 383.3 95.1677C384.066 94.5936 384.449 93.892 384.449 93.0628L384.895 95.5185C384.47 96.6879 383.768 97.5808 382.79 98.1974C381.833 98.7927 380.653 99.0904 379.25 99.0904ZM398.445 99.0904C396.191 99.0904 394.394 98.6227 393.055 97.6871C391.715 96.7304 390.982 95.4122 390.854 93.7325H394.522C394.628 94.5617 395.021 95.1889 395.702 95.6142C396.382 96.0394 397.296 96.252 398.445 96.252C399.486 96.252 400.262 96.0925 400.773 95.7736C401.304 95.4334 401.57 94.955 401.57 94.3385C401.57 93.892 401.421 93.5305 401.123 93.2541C400.826 92.9565 400.262 92.712 399.433 92.5206L396.818 91.9146C395.032 91.5319 393.703 90.9366 392.831 90.1287C391.981 89.2995 391.556 88.2683 391.556 87.0351C391.556 85.5256 392.13 84.3456 393.278 83.4951C394.447 82.6234 396.053 82.1875 398.094 82.1875C400.114 82.1875 401.729 82.6234 402.941 83.4951C404.174 84.3456 404.855 85.5256 404.982 87.0351H401.315C401.209 86.376 400.868 85.8764 400.294 85.5362C399.741 85.196 398.976 85.0259 397.998 85.0259C397.084 85.0259 396.393 85.1748 395.925 85.4724C395.457 85.7488 395.223 86.1634 395.223 86.7162C395.223 87.1414 395.404 87.5029 395.766 87.8005C396.127 88.0769 396.733 88.3215 397.583 88.5341L400.39 89.1719C401.985 89.5334 403.186 90.1606 403.994 91.0536C404.823 91.9465 405.238 92.999 405.238 94.2109C405.238 95.763 404.642 96.9643 403.452 97.8147C402.261 98.6652 400.592 99.0904 398.445 99.0904Z" fill="white"/>
<path d="M31.8926 359H560.108V490.556H31.8926V359Z" fill="url(#paint0_linear_761_27)"/>
</g>
<defs>
<linearGradient id="paint0_linear_761_27" x1="296.89" y1="412.818" x2="296.89" y2="474.609" gradientUnits="userSpaceOnUse">
<stop stop-color="#232323" stop-opacity="0"/>
<stop offset="1" stop-color="#232323"/>
</linearGradient>
<clipPath id="clip0_761_27">
<rect width="592" height="494" fill="white"/>
</clipPath>
</defs>
</svg>
